<svg width="31" height="30" viewBox="0 0 31 30" fill="none" xmlns="http://www.w3.org/2000/svg">
<g clip-path="url(#clip0_316_24)">
<path d="M15.7435 3.7807C15.7803 3.76055 15.8216 3.75022 15.8635 3.7507C15.9048 3.75054 15.9455 3.76086 15.9817 3.7807C16.0245 3.80641 16.0596 3.84338 16.0829 3.88758L28.9398 25.7632C29.0073 25.8757 29.0054 25.9957 28.9435 26.1063C28.9198 26.1517 28.8849 26.1904 28.8423 26.2188C28.8052 26.2416 28.7621 26.2527 28.7185 26.2507H3.00854C2.96502 26.2528 2.92187 26.2417 2.88479 26.2188C2.84214 26.1904 2.80733 26.1517 2.78354 26.1063C2.75264 26.0543 2.73665 25.9948 2.73731 25.9342C2.73797 25.8737 2.75526 25.8146 2.78729 25.7632L15.6423 3.88758C15.6657 3.84343 15.7007 3.80649 15.7435 3.7807ZM17.701 2.93695C17.5154 2.61364 17.2478 2.34501 16.9252 2.15821C16.6026 1.97141 16.2363 1.87305 15.8635 1.87305C15.4907 1.87305 15.1245 1.97141 14.8019 2.15821C14.4793 2.34501 14.2116 2.61364 14.026 2.93695L1.16917 24.8126C0.312292 26.2713 1.33979 28.1257 3.00667 28.1257H28.7185C30.3854 28.1257 31.4148 26.2695 30.556 24.8126L17.701 2.93695Z" fill="#FF0000"/>
<path d="M13.9883 22.4996C13.9883 22.2534 14.0368 22.0096 14.131 21.7821C14.2252 21.5546 14.3633 21.3479 14.5375 21.1738C14.7116 20.9997 14.9183 20.8616 15.1458 20.7673C15.3732 20.6731 15.6171 20.6246 15.8633 20.6246C16.1095 20.6246 16.3533 20.6731 16.5808 20.7673C16.8083 20.8616 17.015 20.9997 17.1891 21.1738C17.3632 21.3479 17.5013 21.5546 17.5956 21.7821C17.6898 22.0096 17.7383 22.2534 17.7383 22.4996C17.7383 22.9969 17.5407 23.4738 17.1891 23.8254C16.8375 24.1771 16.3606 24.3746 15.8633 24.3746C15.366 24.3746 14.8891 24.1771 14.5375 23.8254C14.1858 23.4738 13.9883 22.9969 13.9883 22.4996ZM14.172 11.2402C14.1471 11.0037 14.1721 10.7645 14.2455 10.5383C14.319 10.312 14.4391 10.1038 14.5983 9.92696C14.7574 9.75016 14.9519 9.60879 15.1692 9.51201C15.3865 9.41524 15.6217 9.36523 15.8595 9.36523C16.0974 9.36523 16.3326 9.41524 16.5499 9.51201C16.7672 9.60879 16.9617 9.75016 17.1208 9.92696C17.2799 10.1038 17.4001 10.312 17.4735 10.5383C17.547 10.7645 17.572 11.0037 17.547 11.2402L16.8908 17.8159C16.8687 18.0742 16.7505 18.3148 16.5596 18.4902C16.3686 18.6655 16.1188 18.7628 15.8595 18.7628C15.6003 18.7628 15.3505 18.6655 15.1595 18.4902C14.9685 18.3148 14.8503 18.0742 14.8283 17.8159L14.172 11.2402Z" fill="#FF0000"/>
</g>
<defs>
<clipPath id="clip0_316_24">
<rect width="30" height="30" fill="white" transform="translate(0.859375)"/>
</clipPath>
</defs>
</svg>
