<svg width="29" height="29" viewBox="0 0 29 29" fill="none" xmlns="http://www.w3.org/2000/svg">
<path d="M14.5 28.7188C11.6878 28.7188 8.93875 27.8848 6.60049 26.3225C4.26223 24.7601 2.43978 22.5394 1.36359 19.9413C0.287411 17.3431 0.00583208 14.4842 0.554466 11.7261C1.1031 8.9679 2.4573 6.43436 4.44583 4.44583C6.43436 2.4573 8.9679 1.1031 11.7261 0.554466C14.4842 0.00583208 17.3431 0.287411 19.9413 1.36359C22.5394 2.43978 24.7601 4.26223 26.3225 6.60049C27.8848 8.93875 28.7188 11.6878 28.7188 14.5C28.7188 18.2711 27.2207 21.8876 24.5542 24.5542C21.8876 27.2207 18.2711 28.7188 14.5 28.7188V28.7188ZM14.5 2.46876C12.1204 2.46876 9.79433 3.17438 7.8158 4.49639C5.83727 5.8184 4.2952 7.69742 3.38458 9.89585C2.47396 12.0943 2.2357 14.5134 2.69993 16.8472C3.16416 19.181 4.31003 21.3248 5.99263 23.0074C7.67523 24.69 9.81899 25.8358 12.1528 26.3001C14.4867 26.7643 16.9057 26.526 19.1042 25.6154C21.3026 24.7048 23.1816 23.1627 24.5036 21.1842C25.8256 19.2057 26.5313 16.8796 26.5313 14.5C26.5313 11.3091 25.2637 8.24892 23.0074 5.99263C20.7511 3.73633 17.6909 2.46876 14.5 2.46876Z" fill="white"/>
<path d="M14.5 15.5938C13.4184 15.5938 12.3611 15.273 11.4617 14.6721C10.5624 14.0712 9.86145 13.2171 9.44754 12.2178C9.03362 11.2185 8.92532 10.1189 9.13633 9.0581C9.34735 7.99727 9.86819 7.02283 10.633 6.25801C11.3978 5.49319 12.3723 4.97235 13.4331 4.76133C14.4939 4.55032 15.5935 4.65862 16.5928 5.07254C17.5921 5.48645 18.4462 6.1874 19.0471 7.08673C19.648 7.98606 19.9688 9.04339 19.9688 10.125C19.9688 11.5754 19.3926 12.9664 18.367 13.992C17.3414 15.0176 15.9504 15.5938 14.5 15.5938ZM14.5 6.84375C13.851 6.84375 13.2166 7.03619 12.677 7.39674C12.1374 7.75729 11.7169 8.26975 11.4685 8.86932C11.2202 9.46889 11.1552 10.1286 11.2818 10.7651C11.4084 11.4016 11.7209 11.9863 12.1798 12.4452C12.6387 12.9041 13.2234 13.2166 13.8599 13.3432C14.4964 13.4698 15.1561 13.4048 15.7557 13.1565C16.3553 12.9081 16.8677 12.4876 17.2283 11.948C17.5888 11.4084 17.7813 10.774 17.7813 10.125C17.7813 9.25476 17.4356 8.42016 16.8202 7.80481C16.2048 7.18945 15.3702 6.84375 14.5 6.84375Z" fill="white"/>
<path d="M24.9453 23.25C24.7935 23.2511 24.6432 23.2205 24.5038 23.1602C24.3645 23.1 24.2392 23.0114 24.136 22.9C22.975 21.6337 21.5639 20.6221 19.9919 19.9293C18.4198 19.2365 16.7211 18.8775 15.0032 18.875H13.9969C10.7946 18.8681 7.71535 20.1077 5.41097 22.3313C5.19806 22.507 4.92659 22.5957 4.65102 22.5795C4.37545 22.5634 4.11616 22.4437 3.92517 22.2444C3.73418 22.0451 3.6256 21.781 3.62123 21.505C3.61686 21.229 3.71701 20.9615 3.90159 20.7563C6.60958 18.1389 10.2307 16.6794 13.9969 16.6875H15.0032C17.0225 16.6921 19.019 17.1142 20.8674 17.9273C22.7157 18.7405 24.376 19.927 25.7438 21.4125C25.8883 21.5684 25.9843 21.7629 26.02 21.9724C26.0557 22.1819 26.0297 22.3973 25.945 22.5922C25.8603 22.7871 25.7206 22.9531 25.5431 23.0699C25.3656 23.1868 25.1579 23.2494 24.9453 23.25V23.25Z" fill="white"/>
</svg>
