<svg width="29" height="29" viewBox="0 0 29 29" fill="none" xmlns="http://www.w3.org/2000/svg">
<path d="M22.9964 4.15857H20.3909V3.15207C20.3909 2.98172 20.3232 2.81835 20.2028 2.69789C20.0823 2.57744 19.919 2.50977 19.7486 2.50977C19.5783 2.50977 19.4149 2.57744 19.2944 2.69789C19.174 2.81835 19.1063 2.98172 19.1063 3.15207V4.15857H9.96168V3.15207C9.96168 2.98172 9.89401 2.81835 9.77355 2.69789C9.6531 2.57744 9.48973 2.50977 9.31938 2.50977C9.14903 2.50977 8.98565 2.57744 8.8652 2.69789C8.74474 2.81835 8.67707 2.98172 8.67707 3.15207V4.15857H6.07557C5.36099 4.15932 4.67586 4.44336 4.17037 4.94843C3.66487 5.4535 3.38026 6.13839 3.37891 6.85297V23.7738C3.37981 24.4887 3.66422 25.174 4.16977 25.6794C4.67531 26.1849 5.3607 26.4691 6.07557 26.4699H22.9964C23.7112 26.469 24.3964 26.1846 24.9018 25.6792C25.4072 25.1738 25.6916 24.4886 25.6925 23.7738V6.85297C25.6911 6.13849 25.4066 5.45369 24.9012 4.94863C24.3958 4.44358 23.7109 4.15947 22.9964 4.15857ZM6.07557 5.44318H8.67707V6.44969C8.67707 6.62004 8.74474 6.78341 8.8652 6.90387C8.98565 7.02432 9.14903 7.09199 9.31938 7.09199C9.48973 7.09199 9.6531 7.02432 9.77355 6.90387C9.89401 6.78341 9.96168 6.62004 9.96168 6.44969V5.44318H19.1074V6.44969C19.1074 6.62004 19.1751 6.78341 19.2956 6.90387C19.416 7.02432 19.5794 7.09199 19.7497 7.09199C19.9201 7.09199 20.0835 7.02432 20.2039 6.90387C20.3244 6.78341 20.3921 6.62004 20.3921 6.44969V5.44318H22.9964C23.3697 5.44497 23.7272 5.59409 23.9911 5.85811C24.255 6.12213 24.404 6.47967 24.4056 6.85297V8.66547H4.66352V6.85297C4.66516 6.47918 4.81453 6.12121 5.07905 5.85712C5.34357 5.59302 5.70178 5.44423 6.07557 5.44318ZM22.9964 25.1853H6.07557C5.70149 25.1842 5.34302 25.0352 5.07845 24.7707C4.81388 24.5063 4.66471 24.1479 4.66352 23.7738V9.95008H24.4056V23.7738C24.4044 24.1474 24.2556 24.5054 23.9917 24.7697C23.7277 25.0341 23.37 25.1835 22.9964 25.1853Z" fill="#262626"/>
<path d="M10.1669 11.9375H6.82004C6.73572 11.9374 6.65221 11.954 6.57428 11.9862C6.49636 12.0184 6.42555 12.0657 6.3659 12.1253C6.30624 12.1849 6.25892 12.2556 6.22664 12.3335C6.19435 12.4114 6.17773 12.4949 6.17773 12.5792V15.9267C6.17773 16.097 6.24541 16.2604 6.36586 16.3809C6.48632 16.5013 6.64969 16.569 6.82004 16.569H10.1669C10.3373 16.569 10.5007 16.5013 10.6211 16.3809C10.7416 16.2604 10.8092 16.097 10.8092 15.9267V12.5792C10.8091 12.409 10.7414 12.2458 10.6209 12.1254C10.5005 12.0051 10.3372 11.9375 10.1669 11.9375ZM9.52463 15.2844H7.46234V13.2215H9.52463V15.2844Z" fill="#262626"/>
<path d="M16.1513 11.9375H12.8044C12.6342 11.9375 12.4709 12.0051 12.3504 12.1254C12.23 12.2458 12.1623 12.409 12.1621 12.5792V15.9267C12.1621 16.097 12.2298 16.2604 12.3502 16.3809C12.4707 16.5013 12.6341 16.569 12.8044 16.569H16.1513C16.3217 16.569 16.485 16.5013 16.6055 16.3809C16.7259 16.2604 16.7936 16.097 16.7936 15.9267V12.5792C16.7936 12.4949 16.777 12.4114 16.7447 12.3335C16.7124 12.2556 16.6651 12.1849 16.6055 12.1253C16.5458 12.0657 16.475 12.0184 16.3971 11.9862C16.3191 11.954 16.2356 11.9374 16.1513 11.9375ZM15.5096 15.2844H13.4467V13.2215H15.5096V15.2844Z" fill="#262626"/>
<path d="M22.1806 11.9375H18.8337C18.6635 11.9375 18.5002 12.0051 18.3797 12.1254C18.2593 12.2458 18.1916 12.409 18.1914 12.5792V15.9267C18.1914 16.097 18.2591 16.2604 18.3795 16.3809C18.5 16.5013 18.6634 16.569 18.8337 16.569H22.1806C22.351 16.569 22.5143 16.5013 22.6348 16.3809C22.7552 16.2604 22.8229 16.097 22.8229 15.9267V12.5792C22.8229 12.4949 22.8063 12.4114 22.774 12.3335C22.7417 12.2556 22.6944 12.1849 22.6347 12.1253C22.5751 12.0657 22.5043 12.0184 22.4264 11.9862C22.3484 11.954 22.2649 11.9374 22.1806 11.9375ZM21.5389 15.2844H19.476V13.2215H21.5389V15.2844Z" fill="#262626"/>
<path d="M10.1669 18.5059H6.82004C6.64969 18.5059 6.48632 18.5735 6.36586 18.694C6.24541 18.8144 6.17773 18.9778 6.17773 19.1482V22.4951C6.17773 22.6654 6.24541 22.8288 6.36586 22.9492C6.48632 23.0697 6.64969 23.1374 6.82004 23.1374H10.1669C10.3373 23.1374 10.5007 23.0697 10.6211 22.9492C10.7416 22.8288 10.8092 22.6654 10.8092 22.4951V19.1482C10.8092 19.0638 10.7926 18.9803 10.7603 18.9024C10.7281 18.8244 10.6808 18.7536 10.6211 18.694C10.5615 18.6343 10.4907 18.587 10.4127 18.5548C10.3348 18.5225 10.2513 18.5059 10.1669 18.5059ZM9.52463 21.8528H7.46234V19.7905H9.52463V21.8528Z" fill="#262626"/>
<path d="M16.1513 18.5059H12.8044C12.6341 18.5059 12.4707 18.5735 12.3502 18.694C12.2298 18.8144 12.1621 18.9778 12.1621 19.1482V22.4951C12.1621 22.6654 12.2298 22.8288 12.3502 22.9492C12.4707 23.0697 12.6341 23.1374 12.8044 23.1374H16.1513C16.3217 23.1374 16.485 23.0697 16.6055 22.9492C16.7259 22.8288 16.7936 22.6654 16.7936 22.4951V19.1482C16.7936 18.9778 16.7259 18.8144 16.6055 18.694C16.485 18.5735 16.3217 18.5059 16.1513 18.5059ZM15.5096 21.8528H13.4467V19.7905H15.5096V21.8528Z" fill="#262626"/>
<path d="M22.1806 18.5059H18.8337C18.6634 18.5059 18.5 18.5735 18.3795 18.694C18.2591 18.8144 18.1914 18.9778 18.1914 19.1482V22.4951C18.1914 22.6654 18.2591 22.8288 18.3795 22.9492C18.5 23.0697 18.6634 23.1374 18.8337 23.1374H22.1806C22.351 23.1374 22.5143 23.0697 22.6348 22.9492C22.7552 22.8288 22.8229 22.6654 22.8229 22.4951V19.1482C22.8229 19.0638 22.8063 18.9803 22.774 18.9024C22.7417 18.8244 22.6944 18.7536 22.6348 18.694C22.5751 18.6343 22.5043 18.587 22.4264 18.5548C22.3485 18.5225 22.265 18.5059 22.1806 18.5059ZM21.5389 21.8528H19.476V19.7905H21.5389V21.8528Z" fill="#262626"/>
</svg>
