<svg width="70" height="70" viewBox="0 0 70 70" fill="none" xmlns="http://www.w3.org/2000/svg">
<path d="M17.5 6.56262C15.0952 6.56262 13.125 8.5329 13.125 10.9376V59.0626C13.125 61.4676 15.0952 63.4376 17.5 63.4376H52.5C54.9048 63.4376 56.875 61.4676 56.875 59.0626V18.5939C56.875 18.5882 56.875 18.5825 56.875 18.5768C56.875 18.5711 56.875 18.5654 56.875 18.5597C56.8745 18.534 56.8731 18.5084 56.8707 18.4828C56.8695 18.4714 56.8681 18.46 56.8665 18.4486C56.849 18.3023 56.8021 18.161 56.7287 18.0333C56.6553 17.9055 56.5568 17.7939 56.4392 17.7052L45.7538 7.02404C45.7482 7.01685 45.7425 7.00973 45.7367 7.00268C45.6333 6.86392 45.4984 6.75168 45.3432 6.67518C45.188 6.59868 45.0168 6.5601 44.8438 6.56262H17.5ZM17.5 8.75012H43.75V15.3126C43.75 17.7176 45.7202 19.6876 48.125 19.6876H54.6875V59.0626C54.6875 60.2935 53.7308 61.2501 52.5 61.2501H17.5C16.2692 61.2501 15.3125 60.2935 15.3125 59.0626V10.9376C15.3125 9.70693 16.2692 8.75012 17.5 8.75012ZM45.9375 10.2967L53.1409 17.5001H48.125C46.8942 17.5001 45.9375 16.5435 45.9375 15.3126V10.2967ZM22.8748 30.6251C22.5847 30.6398 22.3123 30.7692 22.1176 30.9847C21.9229 31.2003 21.8218 31.4843 21.8365 31.7744C21.8513 32.0645 21.9806 32.3368 22.1962 32.5315C22.4117 32.7262 22.6958 32.8273 22.9858 32.8126H37.478H47.0312C47.1762 32.8147 47.3201 32.7879 47.4546 32.7338C47.5891 32.6798 47.7115 32.5996 47.8147 32.4978C47.9179 32.396 47.9999 32.2748 48.0558 32.141C48.1118 32.0073 48.1406 31.8638 48.1406 31.7189C48.1406 31.5739 48.1118 31.4304 48.0558 31.2967C47.9999 31.163 47.9179 31.0417 47.8147 30.9399C47.7115 30.8382 47.5891 30.7579 47.4546 30.7039C47.3201 30.6498 47.1762 30.6231 47.0312 30.6251H37.478H22.9858C22.9488 30.6232 22.9118 30.6232 22.8748 30.6251ZM22.8748 35.0001C22.5847 35.0148 22.3123 35.1442 22.1176 35.3597C21.9229 35.5753 21.8218 35.8593 21.8365 36.1494C21.8513 36.4395 21.9806 36.7118 22.1962 36.9065C22.4117 37.1012 22.6958 37.2023 22.9858 37.1876H37.478H47.0312C47.1762 37.1897 47.3201 37.1629 47.4546 37.1088C47.5891 37.0548 47.7115 36.9746 47.8147 36.8728C47.9179 36.771 47.9999 36.6498 48.0558 36.516C48.1118 36.3823 48.1406 36.2388 48.1406 36.0939C48.1406 35.9489 48.1118 35.8054 48.0558 35.6717C47.9999 35.538 47.9179 35.4167 47.8147 35.3149C47.7115 35.2132 47.5891 35.1329 47.4546 35.0789C47.3201 35.0248 47.1762 34.9981 47.0312 35.0001H37.478H22.9858C22.9488 34.9982 22.9118 34.9982 22.8748 35.0001ZM22.8748 39.3751C22.5847 39.3898 22.3123 39.5192 22.1176 39.7347C21.9229 39.9503 21.8218 40.2343 21.8365 40.5244C21.8513 40.8145 21.9806 41.0868 22.1962 41.2815C22.4117 41.4762 22.6958 41.5773 22.9858 41.5626H37.478H47.0312C47.1762 41.5647 47.3201 41.5379 47.4546 41.4838C47.5891 41.4298 47.7115 41.3496 47.8147 41.2478C47.9179 41.146 47.9999 41.0248 48.0558 40.891C48.1118 40.7573 48.1406 40.6138 48.1406 40.4689C48.1406 40.3239 48.1118 40.1804 48.0558 40.0467C47.9999 39.913 47.9179 39.7917 47.8147 39.6899C47.7115 39.5882 47.5891 39.5079 47.4546 39.4539C47.3201 39.3998 47.1762 39.3731 47.0312 39.3751H37.478H22.9858C22.9488 39.3732 22.9118 39.3732 22.8748 39.3751ZM22.8748 43.7501C22.5847 43.7648 22.3123 43.8942 22.1176 44.1097C21.9229 44.3253 21.8218 44.6093 21.8365 44.8994C21.8513 45.1895 21.9806 45.4618 22.1962 45.6565C22.4117 45.8512 22.6958 45.9523 22.9858 45.9376H32.5391H38.2812C38.4262 45.9397 38.5701 45.9129 38.7046 45.8588C38.8391 45.8048 38.9615 45.7246 39.0647 45.6228C39.1679 45.521 39.2499 45.3998 39.3058 45.266C39.3618 45.1323 39.3906 44.9888 39.3906 44.8439C39.3906 44.6989 39.3618 44.5554 39.3058 44.4217C39.2499 44.288 39.1679 44.1667 39.0647 44.0649C38.9615 43.9632 38.8391 43.8829 38.7046 43.8289C38.5701 43.7748 38.4262 43.7481 38.2812 43.7501H32.5391H22.9858C22.9488 43.7482 22.9118 43.7482 22.8748 43.7501ZM42.5452 43.7501C42.2551 43.7648 41.9827 43.8942 41.788 44.1097C41.5933 44.3253 41.4922 44.6093 41.507 44.8994C41.5217 45.1895 41.651 45.4618 41.8666 45.6565C42.0821 45.8512 42.3662 45.9523 42.6562 45.9376C42.8012 45.9397 42.9451 45.9129 43.0796 45.8588C43.2141 45.8048 43.3365 45.7246 43.4397 45.6228C43.5429 45.521 43.6249 45.3998 43.6808 45.266C43.7368 45.1323 43.7656 44.9888 43.7656 44.8439C43.7656 44.6989 43.7368 44.5554 43.6808 44.4217C43.6249 44.288 43.5429 44.1667 43.4397 44.0649C43.3365 43.9632 43.2141 43.8829 43.0796 43.8289C42.9451 43.7748 42.8012 43.7481 42.6562 43.7501C42.6192 43.7482 42.5822 43.7482 42.5452 43.7501Z" fill="black"/>
</svg>
