<svg width="25" height="25" viewBox="0 0 25 25" fill="none" xmlns="http://www.w3.org/2000/svg">
<path d="M16.7575 1.07422H8.21875C4.28975 1.07422 1.12305 4.24136 1.12305 8.15225V16.6522C1.12305 20.5633 4.28975 23.7793 8.21875 23.7793H16.7575C20.6865 23.7793 23.9258 20.5633 23.9258 16.6522V8.15225C23.9258 4.24136 20.6865 1.07422 16.7575 1.07422ZM21.7773 16.6522C21.7773 19.386 19.5038 21.6309 16.7575 21.6309H8.21875C5.47222 21.6309 3.22266 19.386 3.22266 16.6522V8.15225C3.22266 5.4186 5.47222 3.17383 8.21875 3.17383H16.7575C19.5038 3.17383 21.7773 5.4186 21.7773 8.15225V16.6522Z" fill="#0172B7"/>
<path d="M12.4874 6.73535C9.3437 6.73535 6.79492 9.27251 6.79492 12.4021C6.79492 15.5313 9.3437 18.0684 12.4874 18.0684C15.6311 18.0684 18.1797 15.5313 18.1797 12.4021C18.1797 9.27251 15.6311 6.73535 12.4874 6.73535ZM12.4874 15.9436C10.5262 15.9436 8.92974 14.3542 8.92974 12.4021C8.92974 10.4482 10.5262 8.8604 12.4874 8.8604C14.4484 8.8604 16.045 10.4482 16.045 12.4021C16.045 14.3542 14.4484 15.9436 12.4874 15.9436Z" fill="#0172B7"/>
<path d="M18.6083 5.55566C18.1893 5.55566 17.8496 5.89375 17.8496 6.31069C17.8496 6.72769 18.1893 7.06592 18.6083 7.06592C19.0269 7.06592 19.3667 6.72769 19.3667 6.31069C19.3667 5.89375 19.0269 5.55566 18.6083 5.55566Z" fill="#0172B7"/>
</svg>
