<svg width="25" height="25" viewBox="0 0 25 25" fill="none" xmlns="http://www.w3.org/2000/svg">
<g clip-path="url(#clip0_508_1917)">
<path fill-rule="evenodd" clip-rule="evenodd" d="M0.630664 8.4248H5.50332V23.8641H0.630664V8.4248ZM2.94277 6.49375H2.90742C1.14355 6.49375 0 5.31348 0 3.81738C0 2.29219 1.17734 1.13672 2.97656 1.13672C4.77422 1.13672 5.87969 2.28926 5.91484 3.81309C5.91484 5.30898 4.77422 6.49375 2.94277 6.49375ZM25 23.8641H19.4746V15.8744C19.4746 13.7832 18.6104 12.3555 16.7098 12.3555C15.2561 12.3555 14.4477 13.3189 14.0713 14.2473C13.9303 14.5805 13.9521 15.0447 13.9521 15.509V23.8639H8.47832C8.47832 23.8639 8.54883 9.71113 8.47832 8.42461H13.9521V10.8477C14.2756 9.78828 16.0246 8.27617 18.816 8.27617C22.2791 8.27617 24.9998 10.4969 24.9998 15.2791L25 23.8641Z" fill="#007EBB"/>
</g>
<defs>
<clipPath id="clip0_508_1917">
<rect width="25" height="25" fill="white"/>
</clipPath>
</defs>
</svg>
