<svg xmlns="http://www.w3.org/2000/svg" viewBox="0 0 526.22 78.08"><defs><style>.cls-1{fill:#009ee0;}.cls-2{fill:#e30016;}</style></defs><title>logo-ru_1</title><g id="Слой_2" data-name="Слой 2"><g id="LOGO"><g id="Rus"><path class="cls-1" d="M116.73,71.19a.31.31,0,0,1-.06.19.42.42,0,0,1-.21.12,2,2,0,0,1-.42.08,6.06,6.06,0,0,1-.67,0,6.54,6.54,0,0,1-.7,0,2,2,0,0,1-.43-.08.7.7,0,0,1-.24-.15.83.83,0,0,1-.12-.25l-1-2.95a7.14,7.14,0,0,0-.46-1.08,2.92,2.92,0,0,0-.53-.71,1.67,1.67,0,0,0-.67-.38,2.65,2.65,0,0,0-.83-.11h-.59v5.31a.31.31,0,0,1-.06.19.51.51,0,0,1-.21.13,1.65,1.65,0,0,1-.4.08,6.84,6.84,0,0,1-1.28,0,1.74,1.74,0,0,1-.41-.08.51.51,0,0,1-.21-.13.26.26,0,0,1-.07-.19V58.64a.25.25,0,0,1,.07-.19.42.42,0,0,1,.21-.13,1.74,1.74,0,0,1,.41-.08,10.25,10.25,0,0,1,1.28,0,1.65,1.65,0,0,1,.4.08.42.42,0,0,1,.21.13.29.29,0,0,1,.06.19v5h.59a2.34,2.34,0,0,0,.79-.12,1.63,1.63,0,0,0,.62-.39,2.67,2.67,0,0,0,.5-.69,7.4,7.4,0,0,0,.44-1.06l.87-2.64a1.33,1.33,0,0,1,.12-.24.45.45,0,0,1,.23-.16,2.47,2.47,0,0,1,.41-.08,6.66,6.66,0,0,1,.69,0,5.93,5.93,0,0,1,.64,0,2.28,2.28,0,0,1,.4.07.31.31,0,0,1,.2.13.36.36,0,0,1,0,.19,1.45,1.45,0,0,1,0,.32c0,.13-.09.3-.16.52l-.87,2.36a9.41,9.41,0,0,1-.48,1.11,4.49,4.49,0,0,1-.51.79,3,3,0,0,1-.56.52,2.94,2.94,0,0,1-.66.34h0a4.59,4.59,0,0,1,.73.4,2.9,2.9,0,0,1,.61.56,4.78,4.78,0,0,1,.55.83,11.34,11.34,0,0,1,.53,1.21l1.06,2.75a3.61,3.61,0,0,1,.19.58A1.38,1.38,0,0,1,116.73,71.19Z"/><path class="cls-1" d="M129.32,70.54a3.62,3.62,0,0,1,.15.59.34.34,0,0,1-.08.32.66.66,0,0,1-.39.13,7.64,7.64,0,0,1-.77,0l-.8,0a2,2,0,0,1-.44-.06.36.36,0,0,1-.21-.13.69.69,0,0,1-.1-.21l-.87-2.67h-4.87l-.83,2.6a.87.87,0,0,1-.1.24.57.57,0,0,1-.21.15,1.74,1.74,0,0,1-.41.08l-.7,0a6.57,6.57,0,0,1-.72,0,.51.51,0,0,1-.36-.15.41.41,0,0,1-.08-.34,3.73,3.73,0,0,1,.16-.57l4-11.77a.81.81,0,0,1,.14-.28.53.53,0,0,1,.25-.17,2.47,2.47,0,0,1,.49-.07h1.77a3,3,0,0,1,.54.07.54.54,0,0,1,.28.17,1,1,0,0,1,.15.31Zm-6-9.73h0l-1.83,5.64h3.68Z"/><path class="cls-1" d="M138.92,67.7a4,4,0,0,1-.37,1.77,3.46,3.46,0,0,1-1.06,1.28,4.8,4.8,0,0,1-1.64.78,8.28,8.28,0,0,1-2.12.25,7.08,7.08,0,0,1-1.18-.09,6.16,6.16,0,0,1-.94-.23,3.94,3.94,0,0,1-.63-.27,2.54,2.54,0,0,1-.34-.22.86.86,0,0,1-.16-.18,1,1,0,0,1-.08-.26,4.23,4.23,0,0,1,0-.43c0-.17,0-.38,0-.64a1.48,1.48,0,0,1,.08-.58.25.25,0,0,1,.23-.14.81.81,0,0,1,.34.12,5.35,5.35,0,0,0,.56.3,4.32,4.32,0,0,0,.82.29,4.2,4.2,0,0,0,1.13.14,3.38,3.38,0,0,0,1-.14,2.06,2.06,0,0,0,.74-.37,1.79,1.79,0,0,0,.48-.59,1.64,1.64,0,0,0,.17-.77,2.19,2.19,0,0,0-.15-.83,1.66,1.66,0,0,0-.49-.63,2.34,2.34,0,0,0-.84-.39,4.76,4.76,0,0,0-1.22-.14h-1.37a.55.55,0,0,1-.24,0,.36.36,0,0,1-.15-.15,1.09,1.09,0,0,1-.07-.32c0-.13,0-.3,0-.52a3.48,3.48,0,0,1,0-.49,1,1,0,0,1,.07-.3.38.38,0,0,1,.14-.16.46.46,0,0,1,.21,0h1.39a4.49,4.49,0,0,0,1.09-.12,2.17,2.17,0,0,0,.78-.37,1.6,1.6,0,0,0,.49-.58,1.78,1.78,0,0,0,.16-.78,2.06,2.06,0,0,0-.11-.68,1.28,1.28,0,0,0-.36-.52,1.69,1.69,0,0,0-.61-.33,2.9,2.9,0,0,0-.88-.11,4,4,0,0,0-1.09.13,5.84,5.84,0,0,0-.84.29c-.23.1-.43.2-.6.29a.88.88,0,0,1-.36.14.17.17,0,0,1-.12-.05.21.21,0,0,1-.09-.14,1.05,1.05,0,0,1-.06-.3c0-.12,0-.28,0-.48s0-.26,0-.38a1.46,1.46,0,0,1,0-.31,1,1,0,0,1,.08-.26.69.69,0,0,1,.15-.21,2.71,2.71,0,0,1,.43-.26,5.84,5.84,0,0,1,.8-.31,10.72,10.72,0,0,1,1.06-.23,8.49,8.49,0,0,1,1.26-.09,6.6,6.6,0,0,1,1.82.23,3.53,3.53,0,0,1,1.3.65,2.67,2.67,0,0,1,.78,1,3.74,3.74,0,0,1,.26,1.42,3.82,3.82,0,0,1-.17,1.16,3,3,0,0,1-.49.93,3,3,0,0,1-.75.67,3.09,3.09,0,0,1-1,.39v0a3,3,0,0,1,1.12.35,3,3,0,0,1,.87.69,3.07,3.07,0,0,1,.56,1A3.35,3.35,0,0,1,138.92,67.7Z"/><path class="cls-1" d="M151.5,70.54a3.62,3.62,0,0,1,.15.59.36.36,0,0,1-.08.32.66.66,0,0,1-.39.13c-.19,0-.45,0-.77,0l-.8,0a2,2,0,0,1-.44-.06.36.36,0,0,1-.21-.13.69.69,0,0,1-.1-.21L148,68.52h-4.88l-.82,2.6a.87.87,0,0,1-.1.24.57.57,0,0,1-.21.15,1.74,1.74,0,0,1-.42.08l-.69,0a6.57,6.57,0,0,1-.72,0,.55.55,0,0,1-.37-.15.45.45,0,0,1-.07-.34,3.49,3.49,0,0,1,.15-.57l4-11.77a.81.81,0,0,1,.14-.28.53.53,0,0,1,.25-.17,2.47,2.47,0,0,1,.49-.07h1.77a3,3,0,0,1,.54.07.54.54,0,0,1,.28.17,1,1,0,0,1,.15.31Zm-6-9.73h0l-1.83,5.64h3.68Z"/><path class="cls-1" d="M162.57,70.53a3.36,3.36,0,0,1,.23.57.3.3,0,0,1-.06.33.73.73,0,0,1-.44.15c-.21,0-.5,0-.88,0l-.74,0a3,3,0,0,1-.43-.07.39.39,0,0,1-.22-.13.56.56,0,0,1-.12-.2l-2.44-4.79L155,71.19a.77.77,0,0,1-.13.2.43.43,0,0,1-.22.13,2.9,2.9,0,0,1-.44.07l-.72,0q-.53,0-.81,0a.59.59,0,0,1-.39-.15.35.35,0,0,1,0-.33,3.82,3.82,0,0,1,.25-.57l3.11-5.79-2.89-5.45a3.31,3.31,0,0,1-.24-.59.31.31,0,0,1,0-.33.78.78,0,0,1,.43-.13c.2,0,.5,0,.88,0s.56,0,.75,0a2.11,2.11,0,0,1,.43.06.5.5,0,0,1,.23.13,1.3,1.3,0,0,1,.12.21L157.69,63l2.22-4.38a1.3,1.3,0,0,1,.12-.21.54.54,0,0,1,.21-.13,1.79,1.79,0,0,1,.4-.06,7,7,0,0,1,.71,0c.34,0,.6,0,.79,0a.66.66,0,0,1,.41.14.33.33,0,0,1,0,.33,3.39,3.39,0,0,1-.23.58l-2.88,5.42Z"/><path class="cls-1" d="M173,69.54c0,.17,0,.31,0,.43a2.36,2.36,0,0,1,0,.31.93.93,0,0,1-.08.22,2,2,0,0,1-.16.21,2.14,2.14,0,0,1-.43.3,5.09,5.09,0,0,1-.77.36,7.53,7.53,0,0,1-1.05.28,7.12,7.12,0,0,1-1.26.11,6.55,6.55,0,0,1-2.41-.42,4.7,4.7,0,0,1-1.83-1.26A5.64,5.64,0,0,1,163.76,68a9.52,9.52,0,0,1-.4-2.91,9.3,9.3,0,0,1,.44-3,6.17,6.17,0,0,1,1.23-2.2,5.15,5.15,0,0,1,1.9-1.36,6.48,6.48,0,0,1,2.45-.46,5.83,5.83,0,0,1,1,.09,7.86,7.86,0,0,1,.93.25,3.79,3.79,0,0,1,.76.34,2.37,2.37,0,0,1,.48.33,1.5,1.5,0,0,1,.19.23,1,1,0,0,1,.08.24,2.66,2.66,0,0,1,0,.34c0,.13,0,.29,0,.48s0,.38,0,.52a1.94,1.94,0,0,1-.07.35.62.62,0,0,1-.12.19.21.21,0,0,1-.16.07.67.67,0,0,1-.38-.18,6.21,6.21,0,0,0-.6-.4,5,5,0,0,0-.87-.4,3.67,3.67,0,0,0-1.21-.18,2.93,2.93,0,0,0-1.38.32,3,3,0,0,0-1,.92,4.37,4.37,0,0,0-.64,1.45,8.78,8.78,0,0,0,0,3.95,4,4,0,0,0,.67,1.41,2.79,2.79,0,0,0,1.06.82,3.41,3.41,0,0,0,1.39.27,4,4,0,0,0,1.21-.16,5.66,5.66,0,0,0,.88-.38c.24-.14.44-.26.6-.37a.73.73,0,0,1,.37-.16.27.27,0,0,1,.16,0,.34.34,0,0,1,.1.16,3.48,3.48,0,0,1,.06.35C173,69.09,173,69.29,173,69.54Z"/><path class="cls-1" d="M183.49,59.38c0,.2,0,.37,0,.51a1.71,1.71,0,0,1-.08.34.4.4,0,0,1-.13.19.25.25,0,0,1-.16.06h-3.25v10.7a.24.24,0,0,1-.07.18.43.43,0,0,1-.21.14,2.47,2.47,0,0,1-.41.08,5.6,5.6,0,0,1-.64,0,5.53,5.53,0,0,1-.63,0,2.47,2.47,0,0,1-.41-.08.43.43,0,0,1-.21-.14.24.24,0,0,1-.07-.18V60.48H174a.25.25,0,0,1-.17-.06.39.39,0,0,1-.12-.19,1.71,1.71,0,0,1-.08-.34c0-.14,0-.31,0-.51s0-.38,0-.52a1.71,1.71,0,0,1,.08-.34.39.39,0,0,1,.12-.19.31.31,0,0,1,.17,0h9.15a.3.3,0,0,1,.16,0,.4.4,0,0,1,.13.19,1.71,1.71,0,0,1,.08.34C183.48,59,183.49,59.18,183.49,59.38Z"/><path class="cls-1" d="M194.26,70.54a3.86,3.86,0,0,1,.16.59.36.36,0,0,1-.08.32.72.72,0,0,1-.4.13,7.51,7.51,0,0,1-.77,0l-.8,0a1.91,1.91,0,0,1-.43-.06.36.36,0,0,1-.21-.13.51.51,0,0,1-.1-.21l-.88-2.67h-4.87l-.82,2.6a1.33,1.33,0,0,1-.11.24.44.44,0,0,1-.21.15,1.64,1.64,0,0,1-.41.08l-.7,0a6.57,6.57,0,0,1-.72,0,.51.51,0,0,1-.36-.15.41.41,0,0,1-.07-.34,3.49,3.49,0,0,1,.15-.57l4-11.77a1,1,0,0,1,.14-.28.51.51,0,0,1,.26-.17,2.36,2.36,0,0,1,.48-.07h1.77a3.11,3.11,0,0,1,.55.07.58.58,0,0,1,.28.17,1.29,1.29,0,0,1,.14.31Zm-5.95-9.73h0l-1.84,5.64h3.68Z"/><path class="cls-1" d="M206.21,71.18a.28.28,0,0,1-.06.18.52.52,0,0,1-.22.14,2.33,2.33,0,0,1-.4.08,5.53,5.53,0,0,1-.63,0,5.79,5.79,0,0,1-.65,0,2.33,2.33,0,0,1-.4-.08.43.43,0,0,1-.21-.14.29.29,0,0,1-.07-.18V65.81h-4.85v5.37a.28.28,0,0,1-.06.18.43.43,0,0,1-.21.14,2.55,2.55,0,0,1-.4.08,5.67,5.67,0,0,1-.65,0,5.53,5.53,0,0,1-.63,0,2.47,2.47,0,0,1-.41-.08.43.43,0,0,1-.21-.14.24.24,0,0,1-.07-.18V58.65a.28.28,0,0,1,.07-.19.42.42,0,0,1,.21-.13,1.74,1.74,0,0,1,.41-.08,5.53,5.53,0,0,1,.63,0,5.67,5.67,0,0,1,.65,0,1.76,1.76,0,0,1,.4.08.42.42,0,0,1,.21.13.33.33,0,0,1,.06.19v4.87h4.85V58.65a.34.34,0,0,1,.07-.19.42.42,0,0,1,.21-.13,1.65,1.65,0,0,1,.4-.08,5.79,5.79,0,0,1,.65,0,5.53,5.53,0,0,1,.63,0,1.65,1.65,0,0,1,.4.08.51.51,0,0,1,.22.13.33.33,0,0,1,.06.19Z"/><path class="cls-1" d="M221,65a3.86,3.86,0,0,1-.28,1.45,3.72,3.72,0,0,1-.78,1.19,3.58,3.58,0,0,1-2.57,1.08,3.53,3.53,0,0,1-1.42-.29,3.69,3.69,0,0,1-1.15-.79,3.53,3.53,0,0,1-.76-1.18,3.87,3.87,0,0,1,0-2.89,3.59,3.59,0,0,1,1.93-2,3.53,3.53,0,0,1,1.42-.29,3.69,3.69,0,0,1,1.41.28,3.55,3.55,0,0,1,1.15.78,3.83,3.83,0,0,1,.77,1.18A3.94,3.94,0,0,1,221,65Z"/><path class="cls-1" d="M240.22,74.67a.35.35,0,0,1-.05.18A.43.43,0,0,1,240,75a1.77,1.77,0,0,1-.35.07l-.57,0-.56,0a2.15,2.15,0,0,1-.35-.07.41.41,0,0,1-.19-.12.28.28,0,0,1-.06-.18V71.55h-8.59a.72.72,0,0,1-.55-.21.89.89,0,0,1-.21-.65V58.63a.24.24,0,0,1,.07-.18.42.42,0,0,1,.21-.13,1.74,1.74,0,0,1,.41-.08,10.25,10.25,0,0,1,1.28,0,1.76,1.76,0,0,1,.4.08.42.42,0,0,1,.21.13.28.28,0,0,1,.06.18V69.31H236V58.63a.29.29,0,0,1,.07-.18.46.46,0,0,1,.22-.13,1.65,1.65,0,0,1,.4-.08,10.25,10.25,0,0,1,1.28,0,1.65,1.65,0,0,1,.4.08.42.42,0,0,1,.21.13.28.28,0,0,1,.06.18V69.31h1.15a.41.41,0,0,1,.34.12.66.66,0,0,1,.1.43Z"/><path class="cls-1" d="M249.77,70.49a3.53,3.53,0,0,1,0,.5,1.18,1.18,0,0,1-.07.32.52.52,0,0,1-.13.18.25.25,0,0,1-.16.06h-6.52a.83.83,0,0,1-.56-.2.85.85,0,0,1-.23-.66V59.13a.83.83,0,0,1,.23-.65.79.79,0,0,1,.56-.2h6.48a.24.24,0,0,1,.16,0,.46.46,0,0,1,.12.18,1.17,1.17,0,0,1,.07.33,3.43,3.43,0,0,1,0,.5,3.28,3.28,0,0,1,0,.49,1.18,1.18,0,0,1-.07.32.46.46,0,0,1-.12.18.25.25,0,0,1-.16.06H244.7v3.24h3.92a.27.27,0,0,1,.17.06.4.4,0,0,1,.13.17,1.56,1.56,0,0,1,.07.32,3.28,3.28,0,0,1,0,.49,3.38,3.38,0,0,1,0,.49,1.61,1.61,0,0,1-.07.31.4.4,0,0,1-.13.17.34.34,0,0,1-.17,0H244.7v3.74h4.68a.25.25,0,0,1,.16.06.52.52,0,0,1,.13.18,1.18,1.18,0,0,1,.07.32A3.53,3.53,0,0,1,249.77,70.49Z"/><path class="cls-1" d="M262.23,71.18a.24.24,0,0,1-.07.18.43.43,0,0,1-.21.14,2.47,2.47,0,0,1-.41.08,5.29,5.29,0,0,1-.63,0,5.6,5.6,0,0,1-.64,0,2.47,2.47,0,0,1-.41-.08.55.55,0,0,1-.21-.14.28.28,0,0,1-.06-.18V65.81h-4.86v5.37a.28.28,0,0,1-.06.18.43.43,0,0,1-.21.14,2.33,2.33,0,0,1-.4.08,5.6,5.6,0,0,1-.64,0,5.72,5.72,0,0,1-.64,0,2.33,2.33,0,0,1-.4-.08.47.47,0,0,1-.22-.14.28.28,0,0,1-.06-.18V58.65a.33.33,0,0,1,.06-.19.46.46,0,0,1,.22-.13,1.65,1.65,0,0,1,.4-.08,5.72,5.72,0,0,1,.64,0,5.6,5.6,0,0,1,.64,0,1.65,1.65,0,0,1,.4.08.42.42,0,0,1,.21.13.33.33,0,0,1,.06.19v4.87h4.86V58.65a.33.33,0,0,1,.06-.19.54.54,0,0,1,.21-.13,1.74,1.74,0,0,1,.41-.08,5.6,5.6,0,0,1,.64,0,5.29,5.29,0,0,1,.63,0,1.74,1.74,0,0,1,.41.08.42.42,0,0,1,.21.13.28.28,0,0,1,.07.19Z"/><path class="cls-1" d="M273.69,59.38c0,.2,0,.37,0,.51a1.21,1.21,0,0,1-.08.34.39.39,0,0,1-.12.19.27.27,0,0,1-.17.06h-3.25v10.7a.28.28,0,0,1-.06.18.52.52,0,0,1-.22.14,2.28,2.28,0,0,1-.41.08,5.53,5.53,0,0,1-.63,0,5.6,5.6,0,0,1-.64,0,2.47,2.47,0,0,1-.41-.08.43.43,0,0,1-.21-.14.24.24,0,0,1-.07-.18V60.48h-3.25a.27.27,0,0,1-.17-.06.62.62,0,0,1-.12-.19,1.26,1.26,0,0,1-.07-.34,3.68,3.68,0,0,1,0-.51,3.84,3.84,0,0,1,0-.52,1.26,1.26,0,0,1,.07-.34.62.62,0,0,1,.12-.19.34.34,0,0,1,.17,0h9.15a.34.34,0,0,1,.17,0,.39.39,0,0,1,.12.19,1.21,1.21,0,0,1,.08.34C273.68,59,273.69,59.18,273.69,59.38Z"/><path class="cls-1" d="M284.12,62.31a5.34,5.34,0,0,1-.35,2,3.75,3.75,0,0,1-1,1.45,4.29,4.29,0,0,1-1.6.89,7.06,7.06,0,0,1-2.23.31h-1.08v4.24a.29.29,0,0,1-.07.18.43.43,0,0,1-.21.14,2.47,2.47,0,0,1-.41.08,6.74,6.74,0,0,1-1.27,0,2.28,2.28,0,0,1-.41-.08.43.43,0,0,1-.21-.14.28.28,0,0,1-.06-.18V59.24a1,1,0,0,1,.24-.72.9.9,0,0,1,.65-.24h3.06c.31,0,.6,0,.88,0s.61.08,1,.16a4.39,4.39,0,0,1,1.17.43,3.55,3.55,0,0,1,1,.81,3.36,3.36,0,0,1,.65,1.14A4.71,4.71,0,0,1,284.12,62.31Zm-2.76.19a2.45,2.45,0,0,0-.24-1.15,1.62,1.62,0,0,0-.6-.66,1.71,1.71,0,0,0-.73-.27,5.29,5.29,0,0,0-.8-.06h-1.12v4.5h1.18a3,3,0,0,0,1.06-.17,1.88,1.88,0,0,0,.7-.49,2.26,2.26,0,0,0,.41-.75A3.21,3.21,0,0,0,281.36,62.5Z"/><path class="cls-1" d="M295.65,70.54a3.62,3.62,0,0,1,.15.59.34.34,0,0,1-.08.32.66.66,0,0,1-.39.13,7.64,7.64,0,0,1-.77,0l-.8,0a1.82,1.82,0,0,1-.43-.06.36.36,0,0,1-.22-.13.69.69,0,0,1-.1-.21l-.87-2.67h-4.87l-.83,2.6a.87.87,0,0,1-.1.24.57.57,0,0,1-.21.15,1.74,1.74,0,0,1-.41.08l-.7,0a6.57,6.57,0,0,1-.72,0,.51.51,0,0,1-.36-.15.41.41,0,0,1-.07-.34,3.49,3.49,0,0,1,.15-.57l4-11.77a1,1,0,0,1,.14-.28.53.53,0,0,1,.25-.17,2.47,2.47,0,0,1,.49-.07h1.77a3,3,0,0,1,.54.07.54.54,0,0,1,.28.17,1,1,0,0,1,.15.31Zm-6-9.73h0l-1.83,5.64h3.68Z"/><path class="cls-1" d="M307.55,71.2a.28.28,0,0,1-.06.18.42.42,0,0,1-.21.12,1.74,1.74,0,0,1-.41.08,5.53,5.53,0,0,1-.63,0,5.67,5.67,0,0,1-.65,0,1.76,1.76,0,0,1-.4-.08.42.42,0,0,1-.21-.12.28.28,0,0,1-.06-.18V60.49h-2.79c-.18,1.57-.38,2.93-.57,4.1s-.4,2.17-.62,3a10.62,10.62,0,0,1-.73,2.05,4.35,4.35,0,0,1-.9,1.27,2.82,2.82,0,0,1-1.14.64,5.83,5.83,0,0,1-1.45.17.68.68,0,0,1-.26,0,.34.34,0,0,1-.18-.15,1.1,1.1,0,0,1-.1-.32,3.79,3.79,0,0,1,0-.53c0-.29,0-.53,0-.71a2.58,2.58,0,0,1,.07-.42.4.4,0,0,1,.14-.2.36.36,0,0,1,.19,0,1.37,1.37,0,0,0,.59-.13,1.3,1.3,0,0,0,.55-.51,4.54,4.54,0,0,0,.52-1.06,15.54,15.54,0,0,0,.48-1.81c.15-.75.31-1.66.47-2.74s.31-2.36.48-3.84a1.38,1.38,0,0,1,.24-.73.65.65,0,0,1,.53-.21h6.37a.71.71,0,0,1,.55.21.91.91,0,0,1,.2.64Z"/><path class="cls-1" d="M319.94,67.15a5.06,5.06,0,0,1-.28,1.73,3.39,3.39,0,0,1-.89,1.38,4.57,4.57,0,0,1-1.61.94,8.55,8.55,0,0,1-2.72.35H311.2a1,1,0,0,1-.31,0,.61.61,0,0,1-.26-.15,1.06,1.06,0,0,1-.18-.27,1.1,1.1,0,0,1-.06-.39V58.63a.28.28,0,0,1,.06-.18.51.51,0,0,1,.22-.13,2,2,0,0,1,.42-.08,5.73,5.73,0,0,1,.62,0,6.13,6.13,0,0,1,.65,0,1.76,1.76,0,0,1,.4.08.42.42,0,0,1,.21.13.28.28,0,0,1,.06.18v4.52h1.81a8.61,8.61,0,0,1,2.35.26,4,4,0,0,1,1.48.77,3.66,3.66,0,0,1,.94,1.26A4.21,4.21,0,0,1,319.94,67.15Zm-2.71.22a2.72,2.72,0,0,0-.14-.89,1.75,1.75,0,0,0-.43-.67,2,2,0,0,0-.75-.42,4.63,4.63,0,0,0-1.36-.15H313v4.21h1.57a3.87,3.87,0,0,0,1.41-.19,1.88,1.88,0,0,0,.73-.49,1.94,1.94,0,0,0,.38-.67A2.69,2.69,0,0,0,317.23,67.37Z"/><path class="cls-1" d="M331.89,71.18a.29.29,0,0,1-.07.18.43.43,0,0,1-.21.14,2.71,2.71,0,0,1-.41.08,5.29,5.29,0,0,1-.63,0,5.92,5.92,0,0,1-.65,0,2.33,2.33,0,0,1-.4-.08.55.55,0,0,1-.21-.14.28.28,0,0,1-.06-.18V65.81h-4.86v5.37a.28.28,0,0,1-.06.18.43.43,0,0,1-.21.14,2.33,2.33,0,0,1-.4.08,6.84,6.84,0,0,1-1.28,0,2.33,2.33,0,0,1-.4-.08.42.42,0,0,1-.22-.14.29.29,0,0,1-.07-.18V58.65a.34.34,0,0,1,.07-.19.41.41,0,0,1,.22-.13,1.65,1.65,0,0,1,.4-.08,6.84,6.84,0,0,1,1.28,0,1.65,1.65,0,0,1,.4.08.42.42,0,0,1,.21.13.33.33,0,0,1,.06.19v4.87h4.86V58.65a.33.33,0,0,1,.06-.19.54.54,0,0,1,.21-.13,1.65,1.65,0,0,1,.4-.08,5.92,5.92,0,0,1,.65,0,5.29,5.29,0,0,1,.63,0,1.86,1.86,0,0,1,.41.08.42.42,0,0,1,.21.13.34.34,0,0,1,.07.19Z"/><path class="cls-1" d="M345.35,70.54a3.62,3.62,0,0,1,.15.59.36.36,0,0,1-.08.32.71.71,0,0,1-.39.13q-.28,0-.78,0l-.79,0a2,2,0,0,1-.44-.06.36.36,0,0,1-.21-.13.69.69,0,0,1-.1-.21l-.87-2.67H337l-.82,2.6a.88.88,0,0,1-.11.24.44.44,0,0,1-.21.15,1.55,1.55,0,0,1-.41.08l-.7,0a6.83,6.83,0,0,1-.72,0,.55.55,0,0,1-.36-.15.41.41,0,0,1-.07-.34,3.49,3.49,0,0,1,.15-.57l4-11.77a.82.82,0,0,1,.15-.28.48.48,0,0,1,.25-.17,2.47,2.47,0,0,1,.49-.07h1.76a3,3,0,0,1,.55.07.58.58,0,0,1,.28.17,1,1,0,0,1,.15.31Zm-6-9.73h0l-1.84,5.64h3.69Z"/><path class="cls-1" d="M356.12,71.2a.28.28,0,0,1-.06.18.43.43,0,0,1-.2.12,1.65,1.65,0,0,1-.4.08,5.72,5.72,0,0,1-.64,0,5.48,5.48,0,0,1-.64,0,1.74,1.74,0,0,1-.41-.08.45.45,0,0,1-.22-.12.28.28,0,0,1-.06-.18v-5h-1a2.69,2.69,0,0,0-.92.13,1.59,1.59,0,0,0-.56.38,2.39,2.39,0,0,0-.43.64,6.77,6.77,0,0,0-.38.91l-1,2.87a.74.74,0,0,1-.13.21.66.66,0,0,1-.24.14,2.18,2.18,0,0,1-.44.08l-.69,0a6.91,6.91,0,0,1-.73,0,1.58,1.58,0,0,1-.41-.09.38.38,0,0,1-.18-.13.42.42,0,0,1,0-.15.85.85,0,0,1,0-.25,4,4,0,0,1,.14-.45l1-2.6a5.91,5.91,0,0,1,.39-.9,4.18,4.18,0,0,1,.44-.68,3.17,3.17,0,0,1,.53-.51,2.46,2.46,0,0,1,.6-.32,4.78,4.78,0,0,1-1.1-.46,3.14,3.14,0,0,1-.8-.69,2.76,2.76,0,0,1-.49-.93,4,4,0,0,1-.17-1.18,4.28,4.28,0,0,1,.31-1.64,3.31,3.31,0,0,1,.91-1.25,4.27,4.27,0,0,1,1.5-.79,8.64,8.64,0,0,1,2.5-.28h3.18a.78.78,0,0,1,.55.2.82.82,0,0,1,.22.65Zm-2.63-10.84h-1.35a4.46,4.46,0,0,0-1.27.13,1.78,1.78,0,0,0-.69.39,1.42,1.42,0,0,0-.39.6,2.47,2.47,0,0,0-.12.79,2.39,2.39,0,0,0,.13.77,1.7,1.7,0,0,0,.4.62,2,2,0,0,0,.7.4,3.78,3.78,0,0,0,1.2.14h1.39Z"/><path class="cls-1" d="M374.24,70.54a3.62,3.62,0,0,1,.15.59.36.36,0,0,1-.08.32.66.66,0,0,1-.39.13c-.19,0-.45,0-.77,0l-.8,0a2,2,0,0,1-.44-.06.36.36,0,0,1-.21-.13.69.69,0,0,1-.1-.21l-.87-2.67h-4.88l-.82,2.6a.88.88,0,0,1-.11.24.44.44,0,0,1-.21.15,1.55,1.55,0,0,1-.41.08l-.69,0a6.91,6.91,0,0,1-.73,0,.55.55,0,0,1-.36-.15.45.45,0,0,1-.07-.34,3.49,3.49,0,0,1,.15-.57l4-11.77a.81.81,0,0,1,.14-.28.48.48,0,0,1,.25-.17,2.47,2.47,0,0,1,.49-.07h1.76a3,3,0,0,1,.55.07.58.58,0,0,1,.28.17,1,1,0,0,1,.15.31Zm-6-9.73h0l-1.84,5.64h3.69Z"/><path class="cls-1" d="M383.84,67.7a4,4,0,0,1-.37,1.77,3.46,3.46,0,0,1-1.06,1.28,4.85,4.85,0,0,1-1.65.78,8.17,8.17,0,0,1-2.12.25,7.17,7.17,0,0,1-1.18-.09,6.32,6.32,0,0,1-.93-.23,4.1,4.1,0,0,1-.64-.27,3.46,3.46,0,0,1-.34-.22,1.19,1.19,0,0,1-.15-.18,1,1,0,0,1-.08-.26,4.23,4.23,0,0,1,0-.43c0-.17,0-.38,0-.64a1.48,1.48,0,0,1,.08-.58.24.24,0,0,1,.22-.14.77.77,0,0,1,.34.12q.23.14.57.3a4.08,4.08,0,0,0,.82.29,4.2,4.2,0,0,0,1.13.14,3.43,3.43,0,0,0,1-.14,2.06,2.06,0,0,0,.74-.37,1.68,1.68,0,0,0,.65-1.36,2,2,0,0,0-.16-.83,1.54,1.54,0,0,0-.48-.63,2.34,2.34,0,0,0-.84-.39,4.76,4.76,0,0,0-1.22-.14h-1.37a.55.55,0,0,1-.24,0,.36.36,0,0,1-.15-.15.84.84,0,0,1-.07-.32c0-.13,0-.3,0-.52a3.48,3.48,0,0,1,0-.49.73.73,0,0,1,.07-.3.32.32,0,0,1,.14-.16.46.46,0,0,1,.21,0h1.39a4.35,4.35,0,0,0,1.08-.12,2.15,2.15,0,0,0,.79-.37,1.58,1.58,0,0,0,.48-.58,1.79,1.79,0,0,0,.17-.78,1.83,1.83,0,0,0-.12-.68,1.17,1.17,0,0,0-.35-.52,1.78,1.78,0,0,0-.61-.33,3,3,0,0,0-.89-.11,4,4,0,0,0-1.08.13,5.84,5.84,0,0,0-.84.29,5.7,5.7,0,0,0-.6.29.91.91,0,0,1-.37.14.21.21,0,0,1-.12-.05.33.33,0,0,1-.09-.14,1.68,1.68,0,0,1-.05-.3c0-.12,0-.28,0-.48s0-.26,0-.38a2.61,2.61,0,0,1,0-.31,1.6,1.6,0,0,1,.08-.26,1,1,0,0,1,.16-.21,2.3,2.3,0,0,1,.43-.26,5.37,5.37,0,0,1,.8-.31,10.72,10.72,0,0,1,1.06-.23,8.39,8.39,0,0,1,1.26-.09,6.6,6.6,0,0,1,1.82.23,3.48,3.48,0,0,1,1.29.65,2.7,2.7,0,0,1,.79,1,3.74,3.74,0,0,1,.26,1.42,3.82,3.82,0,0,1-.17,1.16,3.17,3.17,0,0,1-.49.93,3,3,0,0,1-.75.67,3.09,3.09,0,0,1-1,.39v0a3,3,0,0,1,1.12.35,3,3,0,0,1,.87.69,3.27,3.27,0,0,1,.56,1A3.35,3.35,0,0,1,383.84,67.7Z"/><path class="cls-1" d="M396.52,71.2a.24.24,0,0,1-.07.18.42.42,0,0,1-.21.12,1.74,1.74,0,0,1-.41.08,5.53,5.53,0,0,1-.63,0,5.6,5.6,0,0,1-.64,0,1.55,1.55,0,0,1-.4-.08.42.42,0,0,1-.21-.12.28.28,0,0,1-.06-.18v-7c0-.26,0-.52,0-.78s0-.48,0-.68h0l-.19.33-.23.4-.27.43c-.09.15-.19.29-.28.43l-4.52,6.88a1,1,0,0,1-.16.19.54.54,0,0,1-.22.13,1.39,1.39,0,0,1-.33.06l-.51,0a5.29,5.29,0,0,1-.63,0,1.46,1.46,0,0,1-.38-.08.28.28,0,0,1-.18-.13.3.3,0,0,1-.05-.19V58.63a.28.28,0,0,1,.06-.18.51.51,0,0,1,.22-.13,1.86,1.86,0,0,1,.41-.08,5.83,5.83,0,0,1,.63,0,5.93,5.93,0,0,1,.64,0,1.65,1.65,0,0,1,.4.08.42.42,0,0,1,.21.13.28.28,0,0,1,.06.18v7.73c0,.24,0,.48,0,.72h0c.12-.21.26-.46.44-.74s.35-.57.54-.84l4.51-6.88.15-.18a.54.54,0,0,1,.22-.13,1,1,0,0,1,.33-.07,4,4,0,0,1,.52,0,5.26,5.26,0,0,1,.61,0,1.56,1.56,0,0,1,.38.08.35.35,0,0,1,.19.13.29.29,0,0,1,.06.19Z"/><path class="cls-1" d="M408.31,71.2a.28.28,0,0,1-.06.18.42.42,0,0,1-.21.12,1.65,1.65,0,0,1-.4.08,6.84,6.84,0,0,1-1.28,0,1.86,1.86,0,0,1-.41-.08.42.42,0,0,1-.21-.12.28.28,0,0,1-.06-.18v-5h-1a2.64,2.64,0,0,0-.92.13,1.51,1.51,0,0,0-.56.38,2.4,2.4,0,0,0-.44.64,6.83,6.83,0,0,0-.37.91l-1,2.87a.57.57,0,0,1-.13.21.66.66,0,0,1-.24.14,2.05,2.05,0,0,1-.44.08l-.69,0a6.91,6.91,0,0,1-.73,0,1.49,1.49,0,0,1-.4-.09c-.1,0-.16-.08-.18-.13a.28.28,0,0,1,0-.15,1.29,1.29,0,0,1,0-.25,2.87,2.87,0,0,1,.15-.45l1-2.6a8.93,8.93,0,0,1,.39-.9,3.65,3.65,0,0,1,.45-.68,2.78,2.78,0,0,1,.52-.51,2.35,2.35,0,0,1,.61-.32,4.44,4.44,0,0,1-1.1-.46,3,3,0,0,1-.81-.69,3,3,0,0,1-.49-.93,4,4,0,0,1-.16-1.18,4.28,4.28,0,0,1,.3-1.64,3.42,3.42,0,0,1,.91-1.25,4.27,4.27,0,0,1,1.5-.79,8.64,8.64,0,0,1,2.5-.28h3.18a.76.76,0,0,1,.55.2.83.83,0,0,1,.23.65Zm-2.63-10.84h-1.36a4.46,4.46,0,0,0-1.27.13,1.78,1.78,0,0,0-.69.39,1.5,1.5,0,0,0-.38.6,2.47,2.47,0,0,0-.12.79A2.15,2.15,0,0,0,402,63a1.58,1.58,0,0,0,.4.62,1.93,1.93,0,0,0,.69.4,3.78,3.78,0,0,0,1.2.14h1.4Z"/><path class="cls-1" d="M423.1,65a3.8,3.8,0,0,1-1.05,2.64,3.62,3.62,0,0,1-1.16.79,3.57,3.57,0,0,1-1.42.29,3.52,3.52,0,0,1-1.41-.29,3.61,3.61,0,0,1-1.92-2,3.87,3.87,0,0,1,0-2.89,3.83,3.83,0,0,1,.77-1.18,3.57,3.57,0,0,1,1.16-.79,3.61,3.61,0,0,1,1.42-.29,3.78,3.78,0,0,1,1.42.28,3.5,3.5,0,0,1,1.14.78,3.65,3.65,0,0,1,.77,1.18A3.74,3.74,0,0,1,423.1,65Z"/><path class="cls-1" d="M438,59.4a3.68,3.68,0,0,1,0,.51,1.26,1.26,0,0,1-.07.34.4.4,0,0,1-.13.19.34.34,0,0,1-.17.05h-4.31V71.2a.28.28,0,0,1-.06.18.45.45,0,0,1-.22.12,1.65,1.65,0,0,1-.4.08,5.6,5.6,0,0,1-.64,0,5.72,5.72,0,0,1-.64,0,1.65,1.65,0,0,1-.4-.08.51.51,0,0,1-.22-.12.28.28,0,0,1-.06-.18V59.13a.87.87,0,0,1,.21-.64.79.79,0,0,1,.57-.21h6.17c.13,0,.23.08.3.25A2.59,2.59,0,0,1,438,59.4Z"/><path class="cls-1" d="M447.24,70.49a3.53,3.53,0,0,1,0,.5,1.18,1.18,0,0,1-.07.32.52.52,0,0,1-.13.18.25.25,0,0,1-.16.06h-6.52a.83.83,0,0,1-.56-.2.85.85,0,0,1-.23-.66V59.13a.83.83,0,0,1,.23-.65.79.79,0,0,1,.56-.2h6.48a.24.24,0,0,1,.16,0,.46.46,0,0,1,.12.18,1.17,1.17,0,0,1,.07.33,3.43,3.43,0,0,1,0,.5,3.28,3.28,0,0,1,0,.49,1.18,1.18,0,0,1-.07.32.46.46,0,0,1-.12.18.25.25,0,0,1-.16.06h-4.64v3.24h3.92a.25.25,0,0,1,.17.06.4.4,0,0,1,.13.17,1.56,1.56,0,0,1,.07.32,3.28,3.28,0,0,1,0,.49,3.38,3.38,0,0,1,0,.49,1.61,1.61,0,0,1-.07.31.4.4,0,0,1-.13.17.31.31,0,0,1-.17,0h-3.92v3.74h4.68a.25.25,0,0,1,.16.06.52.52,0,0,1,.13.18,1.18,1.18,0,0,1,.07.32A3.53,3.53,0,0,1,447.24,70.49Z"/><path class="cls-1" d="M458.45,62.31a5.34,5.34,0,0,1-.34,2,4,4,0,0,1-1,1.45,4.37,4.37,0,0,1-1.6.89,7.11,7.11,0,0,1-2.23.31H452.2v4.24a.28.28,0,0,1-.06.18.47.47,0,0,1-.22.14,2.33,2.33,0,0,1-.4.08,5.6,5.6,0,0,1-.64,0,5.72,5.72,0,0,1-.64,0,2.33,2.33,0,0,1-.4-.08.43.43,0,0,1-.21-.14.28.28,0,0,1-.06-.18V59.24a1,1,0,0,1,.24-.72.9.9,0,0,1,.65-.24h3.06c.31,0,.6,0,.88,0s.61.08,1,.16a4.45,4.45,0,0,1,1.18.43,3.55,3.55,0,0,1,1,.81,3.18,3.18,0,0,1,.64,1.14A4.43,4.43,0,0,1,458.45,62.31Zm-2.75.19a2.45,2.45,0,0,0-.25-1.15,1.6,1.6,0,0,0-.59-.66,1.71,1.71,0,0,0-.73-.27,5.29,5.29,0,0,0-.8-.06H452.2v4.5h1.19a3,3,0,0,0,1.06-.17,1.84,1.84,0,0,0,.69-.49,2.1,2.1,0,0,0,.41-.75A2.91,2.91,0,0,0,455.7,62.5Z"/><path class="cls-1" d="M475.63,71.18a.28.28,0,0,1-.06.18.36.36,0,0,1-.2.14,2.25,2.25,0,0,1-.38.08,5.22,5.22,0,0,1-.62,0,5,5,0,0,1-.6,0,2,2,0,0,1-.38-.08.45.45,0,0,1-.2-.14.28.28,0,0,1-.06-.18V60.38h0l-3.76,10.79a.54.54,0,0,1-.13.22.66.66,0,0,1-.25.14,1.78,1.78,0,0,1-.39.06l-.59,0a4.85,4.85,0,0,1-.58,0,1.66,1.66,0,0,1-.39-.08.66.66,0,0,1-.25-.14.39.39,0,0,1-.12-.19L463,60.38h0v10.8a.28.28,0,0,1-.06.18.36.36,0,0,1-.2.14,2.39,2.39,0,0,1-.39.08,5,5,0,0,1-.61,0,5,5,0,0,1-.6,0,2,2,0,0,1-.38-.08.36.36,0,0,1-.2-.14.28.28,0,0,1-.06-.18V59.35a1.11,1.11,0,0,1,.27-.8,1,1,0,0,1,.72-.27h1.73a3.62,3.62,0,0,1,.79.07,1.66,1.66,0,0,1,.57.26,1.41,1.41,0,0,1,.4.47,4,4,0,0,1,.29.73l2.8,7.9h0L471,59.83a4.82,4.82,0,0,1,.29-.73,1.51,1.51,0,0,1,.36-.48,1.24,1.24,0,0,1,.49-.27,2.49,2.49,0,0,1,.65-.07h1.77a1.33,1.33,0,0,1,.47.07.81.81,0,0,1,.32.21.75.75,0,0,1,.19.34,1.25,1.25,0,0,1,.07.45Z"/><path class="cls-1" d="M489.09,70.54a3.62,3.62,0,0,1,.15.59.36.36,0,0,1-.08.32.66.66,0,0,1-.39.13c-.19,0-.45,0-.77,0l-.8,0a2,2,0,0,1-.44-.06.36.36,0,0,1-.21-.13.69.69,0,0,1-.1-.21l-.87-2.67H480.7l-.82,2.6a1.33,1.33,0,0,1-.1.24.53.53,0,0,1-.22.15,1.55,1.55,0,0,1-.41.08l-.69,0a6.91,6.91,0,0,1-.73,0,.55.55,0,0,1-.36-.15.45.45,0,0,1-.07-.34,3.49,3.49,0,0,1,.15-.57l4-11.77a.81.81,0,0,1,.14-.28.53.53,0,0,1,.25-.17,2.47,2.47,0,0,1,.49-.07h1.76a3,3,0,0,1,.55.07.54.54,0,0,1,.28.17,1,1,0,0,1,.15.31Zm-6-9.73h0l-1.83,5.64H485Z"/><path class="cls-1" d="M501,71.18a.24.24,0,0,1-.07.18.43.43,0,0,1-.21.14,2.55,2.55,0,0,1-.4.08,6.84,6.84,0,0,1-1.28,0,2.47,2.47,0,0,1-.41-.08.55.55,0,0,1-.21-.14.28.28,0,0,1-.06-.18V65.81h-4.86v5.37a.28.28,0,0,1-.06.18.43.43,0,0,1-.21.14,2.33,2.33,0,0,1-.4.08,5.6,5.6,0,0,1-.64,0,5.72,5.72,0,0,1-.64,0,2.33,2.33,0,0,1-.4-.08.47.47,0,0,1-.22-.14.28.28,0,0,1-.06-.18V58.65a.33.33,0,0,1,.06-.19.46.46,0,0,1,.22-.13,1.65,1.65,0,0,1,.4-.08,5.72,5.72,0,0,1,.64,0,5.6,5.6,0,0,1,.64,0,1.65,1.65,0,0,1,.4.08.42.42,0,0,1,.21.13.33.33,0,0,1,.06.19v4.87h4.86V58.65a.33.33,0,0,1,.06-.19.54.54,0,0,1,.21-.13,1.74,1.74,0,0,1,.41-.08,6.84,6.84,0,0,1,1.28,0,1.76,1.76,0,0,1,.4.08.42.42,0,0,1,.21.13.28.28,0,0,1,.07.19Z"/><path class="cls-1" d="M514.43,71.2a.24.24,0,0,1-.07.18.42.42,0,0,1-.21.12,1.74,1.74,0,0,1-.41.08,5.53,5.53,0,0,1-.63,0,5.6,5.6,0,0,1-.64,0,1.55,1.55,0,0,1-.4-.08.42.42,0,0,1-.21-.12.28.28,0,0,1-.06-.18v-7c0-.26,0-.52,0-.78s0-.48,0-.68h0l-.19.33-.23.4-.27.43c-.09.15-.19.29-.28.43l-4.52,6.88a1,1,0,0,1-.16.19.54.54,0,0,1-.22.13,1.39,1.39,0,0,1-.33.06l-.51,0a5.29,5.29,0,0,1-.63,0,1.46,1.46,0,0,1-.38-.08.28.28,0,0,1-.18-.13.3.3,0,0,1-.05-.19V58.63a.28.28,0,0,1,.06-.18.51.51,0,0,1,.22-.13,1.86,1.86,0,0,1,.41-.08,10.09,10.09,0,0,1,1.27,0,1.65,1.65,0,0,1,.4.08.42.42,0,0,1,.21.13.28.28,0,0,1,.06.18v7.73c0,.24,0,.48,0,.72h0c.12-.21.26-.46.44-.74s.35-.57.54-.84L512,58.62a1.43,1.43,0,0,1,.15-.18.54.54,0,0,1,.22-.13,1,1,0,0,1,.33-.07,4,4,0,0,1,.52,0,5.26,5.26,0,0,1,.61,0,1.46,1.46,0,0,1,.38.08.35.35,0,0,1,.19.13.29.29,0,0,1,.06.19Z"/><path class="cls-1" d="M526.22,71.2a.28.28,0,0,1-.06.18.42.42,0,0,1-.21.12,1.65,1.65,0,0,1-.4.08,6.84,6.84,0,0,1-1.28,0,1.86,1.86,0,0,1-.41-.08.42.42,0,0,1-.21-.12.28.28,0,0,1-.06-.18v-5h-1a2.64,2.64,0,0,0-.92.13,1.51,1.51,0,0,0-.56.38,2.4,2.4,0,0,0-.44.64,6.83,6.83,0,0,0-.37.91l-1,2.87a.57.57,0,0,1-.13.21.66.66,0,0,1-.24.14,2.05,2.05,0,0,1-.44.08l-.69,0a6.91,6.91,0,0,1-.73,0,1.49,1.49,0,0,1-.4-.09c-.1,0-.16-.08-.18-.13a.28.28,0,0,1,0-.15,1.29,1.29,0,0,1,0-.25,2.87,2.87,0,0,1,.15-.45l1-2.6A8.93,8.93,0,0,1,518,67a3.65,3.65,0,0,1,.45-.68,2.78,2.78,0,0,1,.52-.51,2.35,2.35,0,0,1,.61-.32,4.44,4.44,0,0,1-1.1-.46,3,3,0,0,1-.81-.69,3,3,0,0,1-.49-.93,4,4,0,0,1-.16-1.18,4.28,4.28,0,0,1,.3-1.64,3.42,3.42,0,0,1,.91-1.25,4.27,4.27,0,0,1,1.5-.79,8.64,8.64,0,0,1,2.5-.28h3.18a.76.76,0,0,1,.55.2.83.83,0,0,1,.23.65Zm-2.63-10.84h-1.36a4.51,4.51,0,0,0-1.27.13,1.78,1.78,0,0,0-.69.39,1.5,1.5,0,0,0-.38.6,2.47,2.47,0,0,0-.12.79,2.15,2.15,0,0,0,.13.77,1.58,1.58,0,0,0,.4.62,1.93,1.93,0,0,0,.69.4,3.78,3.78,0,0,0,1.2.14h1.4Z"/><path id="path99-6" class="cls-2" d="M127.65,44v1.18H105.71V44h1.5a4.89,4.89,0,0,0,3.61-1.17,7.64,7.64,0,0,0,.9-4.11V10.51a8.08,8.08,0,0,0-.9-4.4c-.6-.88-1.81-1.18-3.61-1.18h-1.5V3.76h21.94V4.93h-1.51c-1.8,0-3,.3-3.6,1.18a8.08,8.08,0,0,0-.9,4.4V38.67a7.64,7.64,0,0,0,.9,4.11c.6.88,1.8,1.17,3.6,1.17ZM143.57,3.76l24.35,26.7V11.68c0-2.64-.3-4.4-1.21-5.28s-2.7-1.47-5.1-1.47V3.76h13.82V4.93a6.27,6.27,0,0,0-3.31.88c-.9.3-1.2,1.18-1.5,1.76a13.34,13.34,0,0,0-.6,4.11v34h-.9L137.86,11.39v27c0,1.47,0,2.64.6,3.52a3.5,3.5,0,0,0,1.81,1.76,16.52,16.52,0,0,0,4.21.29v1.18h-15V44c2.1,0,3.91-.29,4.81-1.17s1.2-2.35,1.2-4.4V9a4,4,0,0,0-.9-1.17c-1.81-1.76-3.61-2.94-5.11-2.94V3.76Zm72.43,0V14.62h-.9c-.9-5.58-3.91-8.51-9.32-8.51h-3.9V38.67a7.64,7.64,0,0,0,.9,4.11,4.85,4.85,0,0,0,3.6,1.17h1.51v1.18H186V44h1.5a5.49,5.49,0,0,0,3.31-.88c.9-.58,1.2-2,1.2-4.4V6.11h-4.21a8.91,8.91,0,0,0-4.21.88,7,7,0,0,0-3,2.93,14.29,14.29,0,0,0-1.5,4.7h-1.21V3.76Zm18.93,2.35v17h.61a8.56,8.56,0,0,0,4.5-.88c1.21-.58,1.81-1.46,2.71-2.93a20.83,20.83,0,0,0,1.5-5.87h.9V34.57h-.9a12.42,12.42,0,0,0-1.8-5.87A6.14,6.14,0,0,0,240,25.76a18.74,18.74,0,0,0-4.5-.58h-.61V38.09a8.68,8.68,0,0,0,.61,3.81,5.13,5.13,0,0,0,3.6,1.17h3.91q10.37,0,13.52-10.56h1.2l-2.1,12.62h-37V44h1.8a6.12,6.12,0,0,0,3.3-.88c.61-.58,1.21-2,1.21-4.4V10.51c0-2.35-.6-4.11-1.21-4.7a6.21,6.21,0,0,0-3.3-.88h-1.8V3.76h36.06V15.5h-1.2a11.69,11.69,0,0,0-2.41-5.87c-1.2-1.47-2.4-2.64-3.9-2.94-1.51-.58-3.61-.58-6.62-.58Zm40.88,20.24v13.2a4.88,4.88,0,0,0,1.2,3.52,7.38,7.38,0,0,0,4.21.88h.6v1.18H260.18V44h.6a7.4,7.4,0,0,0,4.21-.88c.9-.58,1.2-1.76,1.2-3.52V9.33c0-1.76-.3-2.93-1.2-3.52a7.49,7.49,0,0,0-4.21-.88h-.6V3.76h21c5.71,0,9.91,1.17,12.32,3.23a10.3,10.3,0,0,1,3.9,8.21,9.56,9.56,0,0,1-2.4,6.46c-1.5,1.76-3.91,2.93-6.91,3.81L296.84,39c2.11,3.22,3.91,5,5.71,5v1.18H289.93l-12-18.78Zm0-20.24V24h2.4c3.61,0,5.71-.88,7.21-2.34a11.26,11.26,0,0,0,1.81-6.75c0-2.05-.3-4.11-1.21-5.28a6.36,6.36,0,0,0-3.3-2.94,23.18,23.18,0,0,0-5.41-.58Zm67.62-2.35V14.62h-1.21c-.9-5.58-3.9-8.51-9-8.51H329V38.67c0,1.76.3,3.23,1.2,4.11.6.88,1.81,1.17,3.61,1.17h1.5v1.18H313.07V44h1.5a5.47,5.47,0,0,0,3.31-.88c.9-.58,1.2-2,1.2-4.4V6.11h-4.2a8.85,8.85,0,0,0-4.21.88A6.55,6.55,0,0,0,308,9.92a15.16,15.16,0,0,0-1.8,4.7H305V3.76Zm18.63,2.35v17h.9a10.21,10.21,0,0,0,4.51-.88,6.1,6.1,0,0,0,2.4-2.93,20.83,20.83,0,0,0,1.5-5.87h1.21V34.57h-1.21a18.3,18.3,0,0,0-1.5-5.87,8.91,8.91,0,0,0-2.7-2.94,16.22,16.22,0,0,0-4.21-.58h-.9V38.09c0,2,.3,3.22.9,3.81.3.59,1.5,1.17,3.31,1.17h3.9q10.36,0,13.53-10.56h1.2l-2.11,12.62h-37V44h1.8a6.16,6.16,0,0,0,3.31-.88c.9-.58,1.2-2,1.2-4.4V10.51c0-2.35-.3-4.11-1.2-4.7a6.25,6.25,0,0,0-3.31-.88h-1.8V3.76h36.06V15.5h-1.2a11.68,11.68,0,0,0-2.4-5.87,6.42,6.42,0,0,0-3.91-2.94c-1.5-.58-3.61-.58-6.61-.58Zm49.59,27.28H398.12l-2.1,5a4.66,4.66,0,0,0-.9,2.64,3.61,3.61,0,0,0,1.2,2.35,15.11,15.11,0,0,0,4.51.58v1.18H387V44c2.71,0,5.11-2.64,7.52-7.92L408.34,3.17h.6l14.73,34.62c1.8,4.11,3.9,6.16,6,6.16v1.18H409.84V44h.9c2.71,0,4.21-.58,4.21-2.05a11.48,11.48,0,0,0-.6-1.76Zm-.91-2.05-6-14.08L399,31.34ZM472.65,2.88V16.67h-1.2a12.28,12.28,0,0,0-4.81-8.51,15,15,0,0,0-8.41-2.64,11,11,0,0,0-6.61,2.05,17.78,17.78,0,0,0-5.11,6.17c-1.21,2.64-1.81,6.45-1.81,10.85,0,6.46,1.21,11.15,3.91,14.38a12,12,0,0,0,9.62,4.4A12.84,12.84,0,0,0,466,41a17.47,17.47,0,0,0,6-5.28v3.52A21.4,21.4,0,0,1,456.12,46c-6.91,0-12.62-2.06-16.53-6.16a20.91,20.91,0,0,1-6-14.67A21.24,21.24,0,0,1,440.2,9.33a21.37,21.37,0,0,1,15.62-6.45,26,26,0,0,1,9.62,2.05,8,8,0,0,0,3,.88c1.8,0,2.7-.88,3-2.93Zm37.27,22.3H491.59V38.67a7.48,7.48,0,0,0,1.2,4.11c.6.88,1.8,1.17,3.6,1.17h.91v1.18h-21V44h.9c1.8,0,3-.29,3.61-1.17a6.73,6.73,0,0,0,1.2-4.11V10.51a7.77,7.77,0,0,0-1.2-4.4c-.6-.88-1.81-1.18-3.61-1.18h-.9V3.76h21V4.93h-.91c-1.8,0-3,.3-3.6,1.18a7.77,7.77,0,0,0-1.2,4.4v12h18.33v-12a7.77,7.77,0,0,0-1.2-4.4c-.61-.88-1.81-1.18-3.61-1.18h-.9V3.76h21V4.93h-.91c-1.8,0-3,.3-3.6,1.18-.9.88-1.21,2.34-1.21,4.4V38.67c0,1.76.31,3.23,1.21,4.11.6.88,1.8,1.17,3.6,1.17h.91v1.18h-21V44h.9c1.8,0,3-.29,3.61-1.17a6.73,6.73,0,0,0,1.2-4.11Z"/><path id="path103" class="cls-1" d="M58.65,7c.69-.41,1.37-.85,2-1.32A30.77,30.77,0,0,0,52,2.8,32.17,32.17,0,0,1,58.65,7ZM9.83,6C12,9.43,7.91,13.27,8.32,16c2.82-3.91,5.51-4.38,8.26-6.58-.68,5.4-7.7,7.1-9.76,11.84C4.7,11,8.13,10.27,9.83,6Zm2.09,4.28s.93-4.66,3.55-6.37,4-2,6.1-3.86c-1.39,5-6.51,7-9.65,10.23ZM7.47,58.37c5.27,6.2,13.11,4.14,17.38,5.45-3-3.43-6.2-9.28-4.21-11,.53,3,3.69,5.1,4.78,7.28,1.39,2.81,1,3.25,4.13,7-3.29-2.3-8.94.22-13.37-.49C12.54,66,9.28,64.6,7.47,58.37ZM3,48.59c3.57,6.8,10,6.79,13.9,8.88-2.09-3.71-3.47-9.28-1.48-11,.53,3,2.27,4.48,3.36,6.66,1.39,2.81,0,4.91,3.1,8.62-3.29-2.3-7.39-2.66-11.82-3.37C6.38,57.84,3.63,55,3,48.59ZM.81,38.73C4.42,41,6.93,46.37,10.34,49.12c0-7.21-.26-10.61,2-11.91-.52,4.44.79,5.11.85,7.74.06,2.79-1.48,6-.76,9.35C8.53,47.3,1.31,50.37.81,38.73ZM.35,25.64a31.51,31.51,0,0,0,6.34,12c0-7.21,2.63-7.43,3.89-10.68a8.56,8.56,0,0,1,.14,6.31c-1.2,2.86-3.65,5.22-2.56,10.27C4.69,38,1.74,38.34.75,35.5-.33,32.38,0,29.08.35,25.64ZM3.72,14.92c2.95,3.7-.06,9,1.89,11.77,2.81-3.92,4-7.28,6.73-7.58-1.9,3.15-1.68,4.32-2.6,5.56-1.87,2.55-3.5,3.57-4,7.62C3,23,0,21.56,3.72,14.92Zm80-8.7c-2.18,3.46,1.87,7.33,1.44,10.05C82.39,12.34,79.7,11.85,77,9.63c.64,5.4,7.66,7.15,9.68,11.91,2.19-10.21-1.23-11-2.9-15.32Zm-2.12,4.26s-.89-4.66-3.5-6.39-4-2-6.07-3.91C73.4,5.22,78.51,7.22,81.62,10.48ZM85.7,58.65C80.38,64.81,72.57,62.7,68.28,64c3-3.41,6.27-9.24,4.3-10.94-.56,3-3.74,5.07-4.84,7.25-1.41,2.79-1,3.24-4.18,6.93,3.31-2.28,8.93.28,13.37-.4C80.57,66.26,83.84,64.87,85.7,58.65Zm4.59-9.74c-3.62,6.77-10.08,6.71-14,8.77,2.11-3.69,3.54-9.24,1.57-11-.56,3-2.31,4.47-3.41,6.65-1.42,2.79,0,4.9-3.17,8.59,3.31-2.27,7.41-2.61,11.84-3.28C86.8,58.13,89.56,55.29,90.29,48.91Zm2.22-9.84c-3.62,2.25-6.18,7.59-9.61,10.31,0-7.2.34-10.6-1.92-11.92.49,4.44-.83,5.11-.91,7.73-.08,2.79,1.44,6.05.7,9.36C84.73,47.58,91.92,50.7,92.51,39.07ZM93.08,26a31.52,31.52,0,0,1-6.44,11.93c0-7.2-2.57-7.45-3.8-10.7a8.52,8.52,0,0,0-.19,6.31c1.17,2.86,3.61,5.24,2.48,10.28,3.51-5.52,6.46-5.13,7.47-8,1.1-3.11.83-6.41.48-9.85ZM89.79,15.23c-3,3.68,0,9.05-2,11.76-2.79-3.94-3.93-7.31-6.68-7.63,1.88,3.17,1.65,4.33,2.56,5.58,1.85,2.56,3.47,3.6,4,7.65,2.82-9.27,5.77-10.69,2.12-17.36ZM17,69.06c9.52,3.67,16.39-3.9,23.67-3.08a15.9,15.9,0,0,1,5.92,1.9A16.19,16.19,0,0,1,52.48,66c7.29-.77,14.1,6.85,23.65,3.26-11.46,8.65-21.2-2.47-27.22-.77q-.42.12-.81.27c2,1.21,4,2.74,6.64,4.53.26,1.48.52,3.29.78,4.77-3.44-2.54-5.53-6.45-9-8.54-3.46,2.07-5.58,6-9,8.48.27-1.48.55-3.29.82-4.77C40.92,71.48,43,70,45,68.77c-.26-.1-.53-.19-.8-.27-6-1.75-15.84,9.3-27.23.56ZM52.68,9.42c.7-.18,1.39-.39,2.06-.63.43-.15.83-.31,1.2-.46s.84-.37,1.25-.57a29.91,29.91,0,0,0-7.74-4.41A24.94,24.94,0,0,1,52.68,9.42Zm-5.14.73a24,24,0,0,0,3.63-.39,21.24,21.24,0,0,0-3.6-6.32Zm-5.16-.42a22.79,22.79,0,0,0,3.62.41l0-6.7a20.94,20.94,0,0,0-3.65,6.29Zm-6-2.05a23.33,23.33,0,0,0,4.49,1.7,25.5,25.5,0,0,1,3.28-6.05,30.53,30.53,0,0,0-7.77,4.35ZM32.91,5.56c.28.2.57.41.86.6s.76.5,1.15.73a32.13,32.13,0,0,1,6.67-4.12A30.42,30.42,0,0,0,32.91,5.56Zm1.82,51.73c-.39.23-.78.47-1.15.72s-.59.39-.87.6a30.86,30.86,0,0,0,8.65,2.85l-.27-.13a31.33,31.33,0,0,1-5-3c-.46-.34-.91-.68-1.35-1Zm6-2.45a23.43,23.43,0,0,0-4.51,1.67c.27.21.54.42.82.62A29.63,29.63,0,0,0,41.77,60c.7.34,1.42.65,2.15.94a20.66,20.66,0,0,1-1.87-3A30,30,0,0,1,40.69,54.84Zm5.14-.72a23,23,0,0,0-3.63.39c.39,1,.79,1.87,1.22,2.71a19.49,19.49,0,0,0,1.79,2.88q.3.38.6.72Zm5.17.42a24,24,0,0,0-3.63-.42l0,6.71.6-.72a18.89,18.89,0,0,0,1.81-2.87A28.33,28.33,0,0,0,51,54.54Zm6,2.05c-.41-.21-.83-.4-1.25-.59l-1.2-.47c-.67-.25-1.35-.46-2.05-.65a29.74,29.74,0,0,1-1.38,3,20.23,20.23,0,0,1-1.89,3c.73-.27,1.45-.58,2.15-.91a31,31,0,0,0,4.8-2.82l.82-.61Zm3.45,2.12a23.39,23.39,0,0,0-2-1.34c-.44.36-.89.7-1.35,1a32.62,32.62,0,0,1-5,3l-.27.13a30.89,30.89,0,0,0,8.67-2.79ZM25.64,45.44c-.74.36-1.46.73-2.18,1.13s-1.71,1-2.53,1.52a29.55,29.55,0,0,0,4.11,5,30.46,30.46,0,0,0,6.2,4.71c.49-.37,1-.73,1.47-1.06l.81-.51a32.47,32.47,0,0,1-7.88-10.81Zm46.68,2.84a43.91,43.91,0,0,0-4.69-2.69,32.39,32.39,0,0,1-8,10.76,23.46,23.46,0,0,1,2.26,1.58,30.82,30.82,0,0,0,6.25-4.66A30.49,30.49,0,0,0,72.32,48.28ZM67.73,18.83a44,44,0,0,0,4.71-2.66A30.29,30.29,0,0,0,62.13,6.45,25.48,25.48,0,0,1,59.85,8,32.13,32.13,0,0,1,67.73,18.83ZM21.05,16c.82.54,1.66,1.06,2.52,1.55s1.44.78,2.17,1.14a32.49,32.49,0,0,1,8-10.75l-.8-.52c-.49-.33-1-.69-1.46-1.06A30,30,0,0,0,25.2,11,30.39,30.39,0,0,0,21.05,16Zm49.5,15.49,6.64,0a29.06,29.06,0,0,0-4-14,46.09,46.09,0,0,1-4.92,2.76,32.28,32.28,0,0,1,2.23,11.25ZM22.82,32.8l-6.63,0a29,29,0,0,0,3.95,14c.83-.54,1.68-1,2.56-1.54s1.55-.83,2.36-1.22A32.29,32.29,0,0,1,22.82,32.8Zm-6.63-1.53,6.64,0a33,33,0,0,1,1-7.15,31.37,31.37,0,0,1,1.33-4.08c-.8-.39-1.58-.8-2.35-1.23s-1.72-1-2.55-1.56a29.09,29.09,0,0,0-4.06,14Zm61,1.73-6.64,0A32.46,32.46,0,0,1,68.23,44.2,45,45,0,0,1,73.12,47a29.09,29.09,0,0,0,4.06-14ZM51.31,31.4l0-6.55h-.49c-1.11.08-2.22.14-3.35.15l0,6.38Zm0,8.09,0-6.59H47.46l0,6.38q1.95,0,3.84.21ZM54,42.84H51.26V41c-1.27-.12-2.55-.19-3.85-.22l0,11.85a25.59,25.59,0,0,1,4.15.49A54.08,54.08,0,0,0,54,42.85ZM57.63,42v.83H55.52A56.26,56.26,0,0,1,53,53.47c.71.19,1.4.41,2.07.65.41.15.84.32,1.28.51.65.28,1.28.59,1.9.92a30.69,30.69,0,0,0,8-10.61c-1.06-.48-2.15-.93-3.27-1.33-.69-.25-1.4-.49-2.13-.71q-1.58-.48-3.21-.87Zm0-9.1,0,7.56c1.24.28,2.46.61,3.66,1,.73.23,1.47.47,2.2.74q1.71.61,3.33,1.35A30.76,30.76,0,0,0,69,33Zm5.5-10.6v2.56l-5.46,0,0,6.55,11.34,0a30.9,30.9,0,0,0-2.09-10.6c-1.08.48-2.2.93-3.34,1.33Zm-7.86-2.79h2.41l5.46,0v1.16c1.08-.38,2.14-.8,3.17-1.26A30.88,30.88,0,0,0,58.46,8.8c-.62.33-1.26.63-1.91.9-.44.19-.87.36-1.28.51-.68.24-1.37.45-2.07.64.2.6.4,1.23.59,1.88a57.71,57.71,0,0,1,1.52,6.81Zm-4,0h2.41a56.41,56.41,0,0,0-1.44-6.39c-.2-.66-.4-1.31-.63-2a24.52,24.52,0,0,1-4.15.46l0,7.86ZM36.75,31.34l0-7.34a48.24,48.24,0,0,1-10.24-3.28,30.34,30.34,0,0,0-1.23,3.78,31.06,31.06,0,0,0-.94,6.8Zm0,8.85,0-7.34L24.37,32.8a30.76,30.76,0,0,0,2.08,10.6,48.56,48.56,0,0,1,10.27-3.21Zm1.05,2.59H36.71V41.73A46.51,46.51,0,0,0,27,44.79a30.91,30.91,0,0,0,7.88,10.67,24.7,24.7,0,0,1,5.27-2,56.15,56.15,0,0,1-2.4-10.64Zm5.31-1.9V42.8H39.32a54.54,54.54,0,0,0,2.36,10.28,25.84,25.84,0,0,1,4.16-.46l0-11.84c-1,0-1.88,0-2.8.11Zm0-8,0,6.5c.92-.06,1.86-.1,2.8-.11l0-6.38Zm0-8,0,6.5h2.8l0-6.39c-.94,0-1.87-.06-2.8-.12Zm-3.43-5.39h3.46l0,3.87c.9.07,1.81.11,2.73.13l0-4H46l0-7.85a24.76,24.76,0,0,1-4.16-.5c-.22.64-.44,1.29-.64,1.95a57.73,57.73,0,0,0-1.48,6.38Zm-2.91,0h1.36a56.84,56.84,0,0,1,1.57-6.8c.2-.65.4-1.28.61-1.88a25.19,25.19,0,0,1-5.25-2.08,30.93,30.93,0,0,0-8,10.61,46.67,46.67,0,0,0,9.66,3.13ZM46.61.85l.2,0,.19,0h.12A32.28,32.28,0,0,1,69.43,10.1a30.83,30.83,0,0,1,9.3,22,.62.62,0,0,1,0,.19,1.23,1.23,0,0,1,0,.19,30.82,30.82,0,0,1-9.47,21.89,32.35,32.35,0,0,1-22.5,9.08.62.62,0,0,1-.19,0,.65.65,0,0,1-.2,0,32.33,32.33,0,0,1-22.43-9.24,30.84,30.84,0,0,1-9.3-22,.87.87,0,0,1,0-.37,30.84,30.84,0,0,1,9.47-21.9A32.33,32.33,0,0,1,46.48.85h.13Z"/></g></g></g></svg>