<svg width="44" height="37" viewBox="0 0 44 37" fill="none" xmlns="http://www.w3.org/2000/svg">
<path d="M34.6775 3.73828C29.5402 3.73828 25.3594 7.91909 25.3594 13.0593C25.3594 18.1986 29.5402 22.3804 34.6775 22.3804C39.8187 22.3804 44.0005 18.1986 44.0005 13.0593C44.0005 7.9186 39.8187 3.73828 34.6775 3.73828ZM38.4674 14.3662H35.8067H35.4107H34.6775C34.0008 14.3662 34.1092 15.0438 34.1092 14.3662H33.3555H30.6944C30.0177 14.3662 29.4683 13.8177 29.4683 13.1401C29.4683 12.4634 30.0177 11.9149 30.6944 11.9149H33.3555C33.3555 11.9149 33.904 11.9149 34.5806 11.9149C35.2573 11.9149 35.8067 11.9149 35.8067 11.9149H38.4674C39.144 11.9149 39.6925 12.4634 39.6925 13.1401C39.6925 13.8177 39.144 14.3662 38.4674 14.3662Z" fill="#0172B7"/>
<path d="M12.1157 22.5742L9.95312 33.8695L12.6221 36.0042L15.2881 33.871L13.0933 22.5742H12.1157Z" fill="#0172B7"/>
<path d="M21.145 18.9297C19.5618 20.4919 17.5607 21.6236 15.3281 22.1471L17.657 34.0912C17.7451 34.5114 17.589 34.9444 17.2558 35.2111L16.2524 36.013C19.0456 35.6793 22.0727 34.9513 25.2427 33.621V24.7564C25.2427 22.1285 23.8874 20.2228 21.145 18.9297Z" fill="#647F94"/>
<path d="M9.87296 22.1838C7.58807 21.6745 5.54048 20.5296 3.92736 18.9375C1.29754 20.2267 0 22.13 0 24.7554V33.6625C1.26427 34.2502 4.51791 35.5746 9.04561 36.058L7.98781 35.2116C7.65412 34.9439 7.49756 34.5129 7.58367 34.0946L9.87296 22.1838Z" fill="#647F94"/>
<path d="M12.53 20.2053C18.0632 20.2053 22.563 15.6737 22.563 10.1029C22.563 4.5321 18.0627 0 12.53 0C7.00176 0 2.50391 4.53161 2.50391 10.1024C2.50391 15.6732 7.00176 20.2053 12.53 20.2053Z" fill="#647F94"/>
</svg>
