<svg width="43" height="35" viewBox="0 0 43 35" fill="none" xmlns="http://www.w3.org/2000/svg">
<path d="M33.66 3.62891C28.6734 3.62891 24.6152 7.68707 24.6152 12.6766C24.6152 17.6651 28.6734 21.7242 33.66 21.7242C38.6505 21.7242 42.7096 17.6651 42.7096 12.6766C42.7096 7.6866 38.6505 3.62891 33.66 3.62891ZM37.3387 13.9451H34.7561V16.5281C34.7561 17.1859 34.2228 17.7183 33.566 17.7183C32.9092 17.7183 32.3768 17.1859 32.3768 16.5281V13.9451H29.7937C29.1369 13.9451 28.6036 13.4127 28.6036 12.7549C28.6036 12.0981 29.1369 11.5657 29.7937 11.5657H32.3768V8.98407C32.3768 8.32726 32.9092 7.79488 33.566 7.79488C34.2228 7.79488 34.7561 8.32726 34.7561 8.98407V11.5657H37.3387C37.9955 11.5657 38.5279 12.0981 38.5279 12.7549C38.5279 13.4127 37.9955 13.9451 37.3387 13.9451Z" fill="#0172B7"/>
<path d="M11.7593 21.9121L9.66016 32.876L12.2508 34.9481L14.8387 32.8775L12.7082 21.9121H11.7593Z" fill="#0172B7"/>
<path d="M20.5252 18.373C18.9884 19.8895 17.046 20.9879 14.8789 21.4961L17.1395 33.0898C17.225 33.4977 17.0735 33.918 16.7501 34.1769L15.776 34.9553C18.4873 34.6314 21.4256 33.9247 24.5026 32.6334V24.0288C24.5026 21.4781 23.1871 19.6283 20.5252 18.373Z" fill="#647F94"/>
<path d="M9.58335 21.5319C7.36549 21.0375 5.37796 19.9262 3.81216 18.3809C1.25948 19.6323 0 21.4797 0 24.0281V32.674C1.22719 33.2443 4.38539 34.5299 8.78027 34.9992L7.7535 34.1776C7.4296 33.9178 7.27763 33.4994 7.36122 33.0933L9.58335 21.5319Z" fill="#647F94"/>
<path d="M12.1617 19.6127C17.5325 19.6127 21.9003 15.214 21.9003 9.80656C21.9003 4.39916 17.5321 0 12.1617 0C6.7956 0 2.42969 4.39868 2.42969 9.80609C2.42969 15.2135 6.7956 19.6127 12.1617 19.6127Z" fill="#647F94"/>
</svg>
