<svg width="25" height="25" viewBox="0 0 25 25" fill="none" xmlns="http://www.w3.org/2000/svg">
<g clip-path="url(#clip0_508_1902)">
<path d="M24.7921 2.92101C24.6247 2.78409 24.4029 2.79106 24.2413 2.9386C24.029 3.13298 23.6835 3.28721 23.3116 3.40602C24.2801 2.09572 24.3009 1.22079 24.2905 1.01938C24.2796 0.811635 24.1759 0.627248 24.0197 0.538538C23.8632 0.449315 23.6798 0.471078 23.5402 0.593203C22.451 1.54935 21.3659 1.75128 20.7206 1.77161C19.7302 0.627248 18.4437 0 17.075 0C14.1442 0 11.7599 2.91769 11.7599 6.50393C11.7599 6.8121 11.7777 7.12033 11.8132 7.42518C6.73397 7.35572 2.60933 1.47875 2.56685 1.41741C2.46775 1.27432 2.31695 1.19789 2.16288 1.21434C2.00882 1.23056 1.87093 1.33624 1.79378 1.498C0.331991 4.56021 1.31011 7.24976 2.20423 8.78964C2.046 8.68779 1.91781 8.58743 1.84137 8.51934C1.69932 8.39162 1.50968 8.37042 1.35008 8.46496C1.19072 8.55978 1.08888 8.75394 1.08585 8.96837C1.04635 11.8861 2.20952 13.5576 3.30292 14.4816C3.15718 14.4649 3.00913 14.5304 2.90799 14.6632C2.79433 14.8124 2.7544 15.023 2.80336 15.2169C3.55864 18.2026 5.41352 19.217 6.59381 19.5612C4.167 21.8424 0.595987 21.1083 0.556489 21.0999C0.340979 21.054 0.127786 21.1909 0.0400399 21.4324C-0.0477537 21.6737 0.0123206 21.9565 0.186016 22.1163C2.74745 24.477 5.81105 25 8.02419 25C9.69804 24.9997 10.8859 24.7004 10.9995 24.6706C22.2092 21.4628 22.5247 9.06347 22.4991 7.03133C24.6034 4.66811 24.9323 3.76806 24.9831 3.54551C25.0367 3.30926 24.96 3.05827 24.7921 2.92101ZM21.6994 6.36838C21.5941 6.48554 21.5384 6.65427 21.5479 6.8269C21.5777 7.37554 22.151 20.3056 10.7903 23.5566C10.7388 23.5697 6.22286 24.7077 2.30791 22.3656C3.9619 22.3102 6.33374 21.7869 7.98607 19.5467C8.1108 19.378 8.14108 19.1361 8.06345 18.9303C7.98678 18.7264 7.81814 18.5956 7.63291 18.5956C7.6313 18.5956 7.62969 18.5956 7.62808 18.5956C7.60453 18.6137 5.12043 18.5923 3.98337 15.7387C4.4414 15.77 5.0061 15.7359 5.45581 15.4857C5.64104 15.3825 5.7505 15.1477 5.72765 14.9028C5.70481 14.6582 5.55467 14.4588 5.3551 14.408C5.22785 14.3757 2.46269 13.629 2.0758 9.98615C2.49547 10.2076 3.03202 10.3889 3.56323 10.291C3.74572 10.2578 3.89515 10.0994 3.94666 9.88545C3.99818 9.67153 3.94179 9.44059 3.80253 9.29442C3.68428 9.17006 1.08722 6.38289 2.31856 2.78854C3.65519 4.48207 7.61469 8.8836 12.4115 8.55087C12.5521 8.5411 12.6819 8.45576 12.7655 8.3185C12.8489 8.1813 12.8773 8.00645 12.8429 7.84131C12.7521 7.4045 12.7059 6.95439 12.7059 6.50393C12.7059 3.54745 14.6659 1.14242 17.075 1.14242C18.2534 1.14242 19.3588 1.71027 20.1871 2.7417C20.2741 2.85018 20.3935 2.91267 20.5185 2.91518C21.0197 2.92352 21.844 2.8524 22.7748 2.40166C22.5062 2.80528 22.1117 3.28944 21.5313 3.83974C21.3673 3.9954 21.307 4.26261 21.383 4.49715C21.4592 4.73226 21.6558 4.88066 21.8613 4.85833C21.9715 4.84776 22.5337 4.78778 23.1689 4.62185C22.8228 5.07253 22.3485 5.6474 21.6994 6.36838Z" fill="#0172B7"/>
</g>
<defs>
<clipPath id="clip0_508_1902">
<rect width="25" height="25" fill="white"/>
</clipPath>
</defs>
</svg>
