<svg width="23" height="23" viewBox="0 0 23 23" fill="none" xmlns="http://www.w3.org/2000/svg">
<path d="M10.9994 16.4717C11.0233 16.4953 11.0493 16.5167 11.0772 16.5354L11.1197 16.5584C11.1516 16.5788 11.1869 16.5932 11.224 16.6008L11.2683 16.6132C11.336 16.6266 11.4057 16.6266 11.4734 16.6132L11.5194 16.5991L11.5725 16.5831C11.5907 16.5747 11.6084 16.5653 11.6256 16.5548L11.6627 16.5336C11.692 16.514 11.7193 16.4914 11.7441 16.4664L16.5041 11.7117C16.5635 11.6655 16.6124 11.6072 16.6475 11.5406C16.6826 11.4741 16.7032 11.4009 16.7079 11.3258C16.7125 11.2507 16.7012 11.1755 16.6745 11.1051C16.6479 11.0347 16.6066 10.9708 16.5534 10.9176C16.5002 10.8644 16.4363 10.8232 16.366 10.7965C16.2956 10.7699 16.2204 10.7586 16.1453 10.7632C16.0702 10.7679 15.997 10.7885 15.9304 10.8236C15.8639 10.8587 15.8056 10.9076 15.7594 10.967L11.905 14.816V0.53066C11.905 0.389921 11.8491 0.254945 11.7496 0.155427C11.6501 0.0559087 11.5151 0 11.3744 0C11.2336 0 11.0987 0.0559087 10.9992 0.155427C10.8996 0.254945 10.8437 0.389921 10.8437 0.53066V14.816L6.98936 10.967C6.88727 10.8875 6.75967 10.8481 6.63056 10.8561C6.50145 10.8642 6.37971 10.9191 6.28824 11.0106C6.19677 11.102 6.14186 11.2238 6.13383 11.3529C6.12581 11.482 6.16523 11.6096 6.24467 11.7117L10.9994 16.4717Z" fill="white"/>
<path d="M22.1108 15.9238C21.9701 15.9238 21.8351 15.9797 21.7356 16.0793C21.6361 16.1788 21.5802 16.3137 21.5802 16.4545V20.346C21.5802 20.7682 21.4125 21.1731 21.1139 21.4717C20.8154 21.7703 20.4104 21.938 19.9882 21.938H2.6533C2.23108 21.938 1.82616 21.7703 1.5276 21.4717C1.22905 21.1731 1.06132 20.7682 1.06132 20.346V16.4545C1.06132 16.3137 1.00541 16.1788 0.905894 16.0793C0.806376 15.9797 0.6714 15.9238 0.53066 15.9238C0.389921 15.9238 0.254945 15.9797 0.155427 16.0793C0.0559087 16.1788 0 16.3137 0 16.4545L0 20.346C0 21.0497 0.279544 21.7246 0.777134 22.2222C1.27472 22.7198 1.9496 22.9993 2.6533 22.9993H19.9882C20.6919 22.9993 21.3668 22.7198 21.8644 22.2222C22.362 21.7246 22.6415 21.0497 22.6415 20.346V16.4545C22.6415 16.3137 22.5856 16.1788 22.4861 16.0793C22.3866 15.9797 22.2516 15.9238 22.1108 15.9238Z" fill="white"/>
</svg>
